<svg version="1.1" xmlns="http://www.w3.org/2000/svg" xmlns:xlink="http://www.w3.org/1999/xlink" width="500" height="1073"><defs/><g><text fill="#eeeeee" stroke="none" font-family="Arial" font-size="24px" font-style="normal" font-weight="normal" text-decoration="none" x="0" y="0">UNREGISTERED</text><text fill="#eeeeee" stroke="none" font-family="Arial" font-size="24px" font-style="normal" font-weight="normal" text-decoration="none" x="0" y="30">UNREGISTERED</text><text fill="#eeeeee" stroke="none" font-family="Arial" font-size="24px" font-style="normal" font-weight="normal" text-decoration="none" x="0" y="60">UNREGISTERED</text><text fill="#eeeeee" stroke="none" font-family="Arial" font-size="24px" font-style="normal" font-weight="normal" text-decoration="none" x="0" y="90">UNREGISTERED</text><text fill="#eeeeee" stroke="none" font-family="Arial" font-size="24px" font-style="normal" font-weight="normal" text-decoration="none" x="0" y="120">UNREGISTERED</text><text fill="#eeeeee" stroke="none" font-family="Arial" font-size="24px" font-style="normal" font-weight="normal" text-decoration="none" x="0" y="150">UNREGISTERED</text><text fill="#eeeeee" stroke="none" font-family="Arial" font-size="24px" font-style="normal" font-weight="normal" text-decoration="none" x="0" y="180">UNREGISTERED</text><text fill="#eeeeee" stroke="none" font-family="Arial" font-size="24px" font-style="normal" font-weight="normal" text-decoration="none" x="0" y="210">UNREGISTERED</text><text fill="#eeeeee" stroke="none" font-family="Arial" font-size="24px" font-style="normal" font-weight="normal" text-decoration="none" x="0" y="240">UNREGISTERED</text><text fill="#eeeeee" stroke="none" font-family="Arial" font-size="24px" font-style="normal" font-weight="normal" text-decoration="none" x="0" y="270">UNREGISTERED</text><text fill="#eeeeee" stroke="none" font-family="Arial" font-size="24px" font-style="normal" font-weight="normal" text-decoration="none" x="0" y="300">UNREGISTERED</text><text fill="#eeeeee" stroke="none" font-family="Arial" font-size="24px" font-style="normal" font-weight="normal" text-decoration="none" x="0" y="330">UNREGISTERED</text><text fill="#eeeeee" stroke="none" font-family="Arial" font-size="24px" font-style="normal" font-weight="normal" text-decoration="none" x="0" y="360">UNREGISTERED</text><text fill="#eeeeee" stroke="none" font-family="Arial" font-size="24px" font-style="normal" font-weight="normal" text-decoration="none" x="0" y="390">UNREGISTERED</text><text fill="#eeeeee" stroke="none" font-family="Arial" font-size="24px" font-style="normal" font-weight="normal" text-decoration="none" x="0" y="420">UNREGISTERED</text><text fill="#eeeeee" stroke="none" font-family="Arial" font-size="24px" font-style="normal" font-weight="normal" text-decoration="none" x="0" y="450">UNREGISTERED</text><text fill="#eeeeee" stroke="none" font-family="Arial" font-size="24px" font-style="normal" font-weight="normal" text-decoration="none" x="0" y="480">UNREGISTERED</text><text fill="#eeeeee" stroke="none" font-family="Arial" font-size="24px" font-style="normal" font-weight="normal" text-decoration="none" x="0" y="510">UNREGISTERED</text><text fill="#eeeeee" stroke="none" font-family="Arial" font-size="24px" font-style="normal" font-weight="normal" text-decoration="none" x="0" y="540">UNREGISTERED</text><text fill="#eeeeee" stroke="none" font-family="Arial" font-size="24px" font-style="normal" font-weight="normal" text-decoration="none" x="0" y="570">UNREGISTERED</text><text fill="#eeeeee" stroke="none" font-family="Arial" font-size="24px" font-style="normal" font-weight="normal" text-decoration="none" x="0" y="600">UNREGISTERED</text><text fill="#eeeeee" stroke="none" font-family="Arial" font-size="24px" font-style="normal" font-weight="normal" text-decoration="none" x="0" y="630">UNREGISTERED</text><text fill="#eeeeee" stroke="none" font-family="Arial" font-size="24px" font-style="normal" font-weight="normal" text-decoration="none" x="0" y="660">UNREGISTERED</text><text fill="#eeeeee" stroke="none" font-family="Arial" font-size="24px" font-style="normal" font-weight="normal" text-decoration="none" x="0" y="690">UNREGISTERED</text><text fill="#eeeeee" stroke="none" font-family="Arial" font-size="24px" font-style="normal" font-weight="normal" text-decoration="none" x="0" y="720">UNREGISTERED</text><text fill="#eeeeee" stroke="none" font-family="Arial" font-size="24px" font-style="normal" font-weight="normal" text-decoration="none" x="0" y="750">UNREGISTERED</text><text fill="#eeeeee" stroke="none" font-family="Arial" font-size="24px" font-style="normal" font-weight="normal" text-decoration="none" x="0" y="780">UNREGISTERED</text><text fill="#eeeeee" stroke="none" font-family="Arial" font-size="24px" font-style="normal" font-weight="normal" text-decoration="none" x="0" y="810">UNREGISTERED</text><text fill="#eeeeee" stroke="none" font-family="Arial" font-size="24px" font-style="normal" font-weight="normal" text-decoration="none" x="0" y="840">UNREGISTERED</text><text fill="#eeeeee" stroke="none" font-family="Arial" font-size="24px" font-style="normal" font-weight="normal" text-decoration="none" x="0" y="870">UNREGISTERED</text><text fill="#eeeeee" stroke="none" font-family="Arial" font-size="24px" font-style="normal" font-weight="normal" text-decoration="none" x="0" y="900">UNREGISTERED</text><text fill="#eeeeee" stroke="none" font-family="Arial" font-size="24px" font-style="normal" font-weight="normal" text-decoration="none" x="0" y="930">UNREGISTERED</text><text fill="#eeeeee" stroke="none" font-family="Arial" font-size="24px" font-style="normal" font-weight="normal" text-decoration="none" x="0" y="960">UNREGISTERED</text><text fill="#eeeeee" stroke="none" font-family="Arial" font-size="24px" font-style="normal" font-weight="normal" text-decoration="none" x="0" y="990">UNREGISTERED</text><text fill="#eeeeee" stroke="none" font-family="Arial" font-size="24px" font-style="normal" font-weight="normal" text-decoration="none" x="0" y="1020">UNREGISTERED</text><text fill="#eeeeee" stroke="none" font-family="Arial" font-size="24px" font-style="normal" font-weight="normal" text-decoration="none" x="0" y="1050">UNREGISTERED</text><text fill="#eeeeee" stroke="none" font-family="Arial" font-size="24px" font-style="normal" font-weight="normal" text-decoration="none" x="200" y="0">UNREGISTERED</text><text fill="#eeeeee" stroke="none" font-family="Arial" font-size="24px" font-style="normal" font-weight="normal" text-decoration="none" x="200" y="30">UNREGISTERED</text><text fill="#eeeeee" stroke="none" font-family="Arial" font-size="24px" font-style="normal" font-weight="normal" text-decoration="none" x="200" y="60">UNREGISTERED</text><text fill="#eeeeee" stroke="none" font-family="Arial" font-size="24px" font-style="normal" font-weight="normal" text-decoration="none" x="200" y="90">UNREGISTERED</text><text fill="#eeeeee" stroke="none" font-family="Arial" font-size="24px" font-style="normal" font-weight="normal" text-decoration="none" x="200" y="120">UNREGISTERED</text><text fill="#eeeeee" stroke="none" font-family="Arial" font-size="24px" font-style="normal" font-weight="normal" text-decoration="none" x="200" y="150">UNREGISTERED</text><text fill="#eeeeee" stroke="none" font-family="Arial" font-size="24px" font-style="normal" font-weight="normal" text-decoration="none" x="200" y="180">UNREGISTERED</text><text fill="#eeeeee" stroke="none" font-family="Arial" font-size="24px" font-style="normal" font-weight="normal" text-decoration="none" x="200" y="210">UNREGISTERED</text><text fill="#eeeeee" stroke="none" font-family="Arial" font-size="24px" font-style="normal" font-weight="normal" text-decoration="none" x="200" y="240">UNREGISTERED</text><text fill="#eeeeee" stroke="none" font-family="Arial" font-size="24px" font-style="normal" font-weight="normal" text-decoration="none" x="200" y="270">UNREGISTERED</text><text fill="#eeeeee" stroke="none" font-family="Arial" font-size="24px" font-style="normal" font-weight="normal" text-decoration="none" x="200" y="300">UNREGISTERED</text><text fill="#eeeeee" stroke="none" font-family="Arial" font-size="24px" font-style="normal" font-weight="normal" text-decoration="none" x="200" y="330">UNREGISTERED</text><text fill="#eeeeee" stroke="none" font-family="Arial" font-size="24px" font-style="normal" font-weight="normal" text-decoration="none" x="200" y="360">UNREGISTERED</text><text fill="#eeeeee" stroke="none" font-family="Arial" font-size="24px" font-style="normal" font-weight="normal" text-decoration="none" x="200" y="390">UNREGISTERED</text><text fill="#eeeeee" stroke="none" font-family="Arial" font-size="24px" font-style="normal" font-weight="normal" text-decoration="none" x="200" y="420">UNREGISTERED</text><text fill="#eeeeee" stroke="none" font-family="Arial" font-size="24px" font-style="normal" font-weight="normal" text-decoration="none" x="200" y="450">UNREGISTERED</text><text fill="#eeeeee" stroke="none" font-family="Arial" font-size="24px" font-style="normal" font-weight="normal" text-decoration="none" x="200" y="480">UNREGISTERED</text><text fill="#eeeeee" stroke="none" font-family="Arial" font-size="24px" font-style="normal" font-weight="normal" text-decoration="none" x="200" y="510">UNREGISTERED</text><text fill="#eeeeee" stroke="none" font-family="Arial" font-size="24px" font-style="normal" font-weight="normal" text-decoration="none" x="200" y="540">UNREGISTERED</text><text fill="#eeeeee" stroke="none" font-family="Arial" font-size="24px" font-style="normal" font-weight="normal" text-decoration="none" x="200" y="570">UNREGISTERED</text><text fill="#eeeeee" stroke="none" font-family="Arial" font-size="24px" font-style="normal" font-weight="normal" text-decoration="none" x="200" y="600">UNREGISTERED</text><text fill="#eeeeee" stroke="none" font-family="Arial" font-size="24px" font-style="normal" font-weight="normal" text-decoration="none" x="200" y="630">UNREGISTERED</text><text fill="#eeeeee" stroke="none" font-family="Arial" font-size="24px" font-style="normal" font-weight="normal" text-decoration="none" x="200" y="660">UNREGISTERED</text><text fill="#eeeeee" stroke="none" font-family="Arial" font-size="24px" font-style="normal" font-weight="normal" text-decoration="none" x="200" y="690">UNREGISTERED</text><text fill="#eeeeee" stroke="none" font-family="Arial" font-size="24px" font-style="normal" font-weight="normal" text-decoration="none" x="200" y="720">UNREGISTERED</text><text fill="#eeeeee" stroke="none" font-family="Arial" font-size="24px" font-style="normal" font-weight="normal" text-decoration="none" x="200" y="750">UNREGISTERED</text><text fill="#eeeeee" stroke="none" font-family="Arial" font-size="24px" font-style="normal" font-weight="normal" text-decoration="none" x="200" y="780">UNREGISTERED</text><text fill="#eeeeee" stroke="none" font-family="Arial" font-size="24px" font-style="normal" font-weight="normal" text-decoration="none" x="200" y="810">UNREGISTERED</text><text fill="#eeeeee" stroke="none" font-family="Arial" font-size="24px" font-style="normal" font-weight="normal" text-decoration="none" x="200" y="840">UNREGISTERED</text><text fill="#eeeeee" stroke="none" font-family="Arial" font-size="24px" font-style="normal" font-weight="normal" text-decoration="none" x="200" y="870">UNREGISTERED</text><text fill="#eeeeee" stroke="none" font-family="Arial" font-size="24px" font-style="normal" font-weight="normal" text-decoration="none" x="200" y="900">UNREGISTERED</text><text fill="#eeeeee" stroke="none" font-family="Arial" font-size="24px" font-style="normal" font-weight="normal" text-decoration="none" x="200" y="930">UNREGISTERED</text><text fill="#eeeeee" stroke="none" font-family="Arial" font-size="24px" font-style="normal" font-weight="normal" text-decoration="none" x="200" y="960">UNREGISTERED</text><text fill="#eeeeee" stroke="none" font-family="Arial" font-size="24px" font-style="normal" font-weight="normal" text-decoration="none" x="200" y="990">UNREGISTERED</text><text fill="#eeeeee" stroke="none" font-family="Arial" font-size="24px" font-style="normal" font-weight="normal" text-decoration="none" x="200" y="1020">UNREGISTERED</text><text fill="#eeeeee" stroke="none" font-family="Arial" font-size="24px" font-style="normal" font-weight="normal" text-decoration="none" x="200" y="1050">UNREGISTERED</text><text fill="#eeeeee" stroke="none" font-family="Arial" font-size="24px" font-style="normal" font-weight="normal" text-decoration="none" x="400" y="0">UNREGISTERED</text><text fill="#eeeeee" stroke="none" font-family="Arial" font-size="24px" font-style="normal" font-weight="normal" text-decoration="none" x="400" y="30">UNREGISTERED</text><text fill="#eeeeee" stroke="none" font-family="Arial" font-size="24px" font-style="normal" font-weight="normal" text-decoration="none" x="400" y="60">UNREGISTERED</text><text fill="#eeeeee" stroke="none" font-family="Arial" font-size="24px" font-style="normal" font-weight="normal" text-decoration="none" x="400" y="90">UNREGISTERED</text><text fill="#eeeeee" stroke="none" font-family="Arial" font-size="24px" font-style="normal" font-weight="normal" text-decoration="none" x="400" y="120">UNREGISTERED</text><text fill="#eeeeee" stroke="none" font-family="Arial" font-size="24px" font-style="normal" font-weight="normal" text-decoration="none" x="400" y="150">UNREGISTERED</text><text fill="#eeeeee" stroke="none" font-family="Arial" font-size="24px" font-style="normal" font-weight="normal" text-decoration="none" x="400" y="180">UNREGISTERED</text><text fill="#eeeeee" stroke="none" font-family="Arial" font-size="24px" font-style="normal" font-weight="normal" text-decoration="none" x="400" y="210">UNREGISTERED</text><text fill="#eeeeee" stroke="none" font-family="Arial" font-size="24px" font-style="normal" font-weight="normal" text-decoration="none" x="400" y="240">UNREGISTERED</text><text fill="#eeeeee" stroke="none" font-family="Arial" font-size="24px" font-style="normal" font-weight="normal" text-decoration="none" x="400" y="270">UNREGISTERED</text><text fill="#eeeeee" stroke="none" font-family="Arial" font-size="24px" font-style="normal" font-weight="normal" text-decoration="none" x="400" y="300">UNREGISTERED</text><text fill="#eeeeee" stroke="none" font-family="Arial" font-size="24px" font-style="normal" font-weight="normal" text-decoration="none" x="400" y="330">UNREGISTERED</text><text fill="#eeeeee" stroke="none" font-family="Arial" font-size="24px" font-style="normal" font-weight="normal" text-decoration="none" x="400" y="360">UNREGISTERED</text><text fill="#eeeeee" stroke="none" font-family="Arial" font-size="24px" font-style="normal" font-weight="normal" text-decoration="none" x="400" y="390">UNREGISTERED</text><text fill="#eeeeee" stroke="none" font-family="Arial" font-size="24px" font-style="normal" font-weight="normal" text-decoration="none" x="400" y="420">UNREGISTERED</text><text fill="#eeeeee" stroke="none" font-family="Arial" font-size="24px" font-style="normal" font-weight="normal" text-decoration="none" x="400" y="450">UNREGISTERED</text><text fill="#eeeeee" stroke="none" font-family="Arial" font-size="24px" font-style="normal" font-weight="normal" text-decoration="none" x="400" y="480">UNREGISTERED</text><text fill="#eeeeee" stroke="none" font-family="Arial" font-size="24px" font-style="normal" font-weight="normal" text-decoration="none" x="400" y="510">UNREGISTERED</text><text fill="#eeeeee" stroke="none" font-family="Arial" font-size="24px" font-style="normal" font-weight="normal" text-decoration="none" x="400" y="540">UNREGISTERED</text><text fill="#eeeeee" stroke="none" font-family="Arial" font-size="24px" font-style="normal" font-weight="normal" text-decoration="none" x="400" y="570">UNREGISTERED</text><text fill="#eeeeee" stroke="none" font-family="Arial" font-size="24px" font-style="normal" font-weight="normal" text-decoration="none" x="400" y="600">UNREGISTERED</text><text fill="#eeeeee" stroke="none" font-family="Arial" font-size="24px" font-style="normal" font-weight="normal" text-decoration="none" x="400" y="630">UNREGISTERED</text><text fill="#eeeeee" stroke="none" font-family="Arial" font-size="24px" font-style="normal" font-weight="normal" text-decoration="none" x="400" y="660">UNREGISTERED</text><text fill="#eeeeee" stroke="none" font-family="Arial" font-size="24px" font-style="normal" font-weight="normal" text-decoration="none" x="400" y="690">UNREGISTERED</text><text fill="#eeeeee" stroke="none" font-family="Arial" font-size="24px" font-style="normal" font-weight="normal" text-decoration="none" x="400" y="720">UNREGISTERED</text><text fill="#eeeeee" stroke="none" font-family="Arial" font-size="24px" font-style="normal" font-weight="normal" text-decoration="none" x="400" y="750">UNREGISTERED</text><text fill="#eeeeee" stroke="none" font-family="Arial" font-size="24px" font-style="normal" font-weight="normal" text-decoration="none" x="400" y="780">UNREGISTERED</text><text fill="#eeeeee" stroke="none" font-family="Arial" font-size="24px" font-style="normal" font-weight="normal" text-decoration="none" x="400" y="810">UNREGISTERED</text><text fill="#eeeeee" stroke="none" font-family="Arial" font-size="24px" font-style="normal" font-weight="normal" text-decoration="none" x="400" y="840">UNREGISTERED</text><text fill="#eeeeee" stroke="none" font-family="Arial" font-size="24px" font-style="normal" font-weight="normal" text-decoration="none" x="400" y="870">UNREGISTERED</text><text fill="#eeeeee" stroke="none" font-family="Arial" font-size="24px" font-style="normal" font-weight="normal" text-decoration="none" x="400" y="900">UNREGISTERED</text><text fill="#eeeeee" stroke="none" font-family="Arial" font-size="24px" font-style="normal" font-weight="normal" text-decoration="none" x="400" y="930">UNREGISTERED</text><text fill="#eeeeee" stroke="none" font-family="Arial" font-size="24px" font-style="normal" font-weight="normal" text-decoration="none" x="400" y="960">UNREGISTERED</text><text fill="#eeeeee" stroke="none" font-family="Arial" font-size="24px" font-style="normal" font-weight="normal" text-decoration="none" x="400" y="990">UNREGISTERED</text><text fill="#eeeeee" stroke="none" font-family="Arial" font-size="24px" font-style="normal" font-weight="normal" text-decoration="none" x="400" y="1020">UNREGISTERED</text><text fill="#eeeeee" stroke="none" font-family="Arial" font-size="24px" font-style="normal" font-weight="normal" text-decoration="none" x="400" y="1050">UNREGISTERED</text><g transform="translate(-774,-670) scale(1,1)"><rect fill="#ffffff" stroke="none" x="800" y="680" width="159" height="32"/></g><g transform="translate(-774,-670) scale(1,1)"><path fill="none" stroke="#000000" d="M 800 680 L 959 680 L 959 712 L 800 712 L 800 680 Z Z" stroke-miterlimit="10"/></g><g transform="translate(-774,-670) scale(1,1)"><g><path fill="none" stroke="none"/><text fill="#000000" stroke="none" font-family="Arial" font-size="13px" font-style="normal" font-weight="normal" text-decoration="none" x="813.030517578125" y="701">User is on main screen</text></g></g><g transform="translate(-774,-670) scale(1,1)"><path fill="#ffffff" stroke="none" d="M 792 893.5 L 876 816 L 960 893.5 L 876 971 L 792 893.5"/></g><g transform="translate(-774,-670) scale(1,1)"><path fill="none" stroke="#000000" d="M 792 893.5 L 876 816 L 960 893.5 L 876 971 L 792 893.5 L 792 893.5" stroke-miterlimit="10"/></g><g transform="translate(-774,-670) scale(1,1)"><g><path fill="none" stroke="none"/><text fill="#000000" stroke="none" font-family="Arial" font-size="13px" font-style="normal" font-weight="normal" text-decoration="none" x="836.977783203125" y="885.5">Does data for</text><text fill="#000000" stroke="none" font-family="Arial" font-size="13px" font-style="normal" font-weight="normal" text-decoration="none" x="841.313232421875" y="898.5">more than 1</text><text fill="#000000" stroke="none" font-family="Arial" font-size="13px" font-style="normal" font-weight="normal" text-decoration="none" x="842.0400390625" y="911.5">week exist?</text></g></g><g transform="translate(-774,-670) scale(1,1)"><path fill="none" stroke="#000000" d="M 879 712 L 879 816" stroke-miterlimit="10"/></g><g transform="translate(-774,-670) scale(1,1)"><path fill="#000000" stroke="none" d="M 874.790482243984 805.8373251423759 L 879 816 L 883.209517756016 805.8373251423759"/></g><g transform="translate(-774,-670) scale(1,1)"><path fill="none" stroke="#000000" d="M 874.790482243984 805.8373251423759 L 879 816 L 883.209517756016 805.8373251423759 L 874.790482243984 805.8373251423759" stroke-miterlimit="10"/></g><g transform="translate(-774,-670) scale(1,1)"><rect fill="#ffffff" stroke="none" x="792" y="1064" width="159" height="45"/></g><g transform="translate(-774,-670) scale(1,1)"><path fill="none" stroke="#000000" d="M 792 1064 L 951 1064 L 951 1109 L 792 1109 L 792 1064 Z Z" stroke-miterlimit="10"/></g><g transform="translate(-774,-670) scale(1,1)"><g><path fill="none" stroke="none"/><text fill="#000000" stroke="none" font-family="Arial" font-size="13px" font-style="normal" font-weight="normal" text-decoration="none" x="816.951416015625" y="1085">Display graph from</text><text fill="#000000" stroke="none" font-family="Arial" font-size="13px" font-style="normal" font-weight="normal" text-decoration="none" x="834.2900390625" y="1098">current week</text></g></g><g transform="translate(-774,-670) scale(1,1)"><path fill="none" stroke="#000000" d="M 872 971 L 872 1064" stroke-miterlimit="10"/></g><g transform="translate(-774,-670) scale(1,1)"><path fill="#000000" stroke="none" d="M 867.790482243984 1053.837325142376 L 872 1064 L 876.209517756016 1053.837325142376"/></g><g transform="translate(-774,-670) scale(1,1)"><path fill="none" stroke="#000000" d="M 867.790482243984 1053.837325142376 L 872 1064 L 876.209517756016 1053.837325142376 L 867.790482243984 1053.837325142376" stroke-miterlimit="10"/></g><g transform="translate(-774,-670) scale(1,1)"><g><path fill="none" stroke="none"/><text fill="#000000" stroke="none" font-family="Arial" font-size="13px" font-style="normal" font-weight="normal" text-decoration="none" x="875.5" y="1021">Yes</text></g></g><g transform="translate(-774,-670) scale(1,1)"><rect fill="#ffffff" stroke="none" x="808" y="1176" width="152" height="71"/></g><g transform="translate(-774,-670) scale(1,1)"><path fill="none" stroke="#000000" d="M 808 1176 L 960 1176 L 960 1247 L 808 1247 L 808 1176 Z Z" stroke-miterlimit="10"/></g><g transform="translate(-774,-670) scale(1,1)"><g><path fill="none" stroke="none"/><text fill="#000000" stroke="none" font-family="Arial" font-size="13px" font-style="normal" font-weight="normal" text-decoration="none" x="837.385986328125" y="1197">Calculate usage</text><text fill="#000000" stroke="none" font-family="Arial" font-size="13px" font-style="normal" font-weight="normal" text-decoration="none" x="829.191162109375" y="1210">difference between</text><text fill="#000000" stroke="none" font-family="Arial" font-size="13px" font-style="normal" font-weight="normal" text-decoration="none" x="834.13916015625" y="1223">current week and</text><text fill="#000000" stroke="none" font-family="Arial" font-size="13px" font-style="normal" font-weight="normal" text-decoration="none" x="842.451416015625" y="1236">previous week</text></g></g><g transform="translate(-774,-670) scale(1,1)"><rect fill="#ffffff" stroke="none" x="808" y="1312" width="151" height="58"/></g><g transform="translate(-774,-670) scale(1,1)"><path fill="none" stroke="#000000" d="M 808 1312 L 959 1312 L 959 1370 L 808 1370 L 808 1312 Z Z" stroke-miterlimit="10"/></g><g transform="translate(-774,-670) scale(1,1)"><g><path fill="none" stroke="none"/><text fill="#000000" stroke="none" font-family="Arial" font-size="13px" font-style="normal" font-weight="normal" text-decoration="none" x="831.11279296875" y="1333">Display calculated</text><text fill="#000000" stroke="none" font-family="Arial" font-size="13px" font-style="normal" font-weight="normal" text-decoration="none" x="821.46435546875" y="1346">usage difference next</text><text fill="#000000" stroke="none" font-family="Arial" font-size="13px" font-style="normal" font-weight="normal" text-decoration="none" x="859.648681640625" y="1359">to graph</text></g></g><g transform="translate(-774,-670) scale(1,1)"><path fill="none" stroke="#000000" d="M 873 1109 L 873 1176" stroke-miterlimit="10"/></g><g transform="translate(-774,-670) scale(1,1)"><path fill="#000000" stroke="none" d="M 868.790482243984 1165.837325142376 L 873 1176 L 877.209517756016 1165.837325142376"/></g><g transform="translate(-774,-670) scale(1,1)"><path fill="none" stroke="#000000" d="M 868.790482243984 1165.837325142376 L 873 1176 L 877.209517756016 1165.837325142376 L 868.790482243984 1165.837325142376" stroke-miterlimit="10"/></g><g transform="translate(-774,-670) scale(1,1)"><path fill="none" stroke="#000000" d="M 884 1247 L 884 1312" stroke-miterlimit="10"/></g><g transform="translate(-774,-670) scale(1,1)"><path fill="#000000" stroke="none" d="M 879.790482243984 1301.837325142376 L 884 1312 L 888.209517756016 1301.837325142376"/></g><g transform="translate(-774,-670) scale(1,1)"><path fill="none" stroke="#000000" d="M 879.790482243984 1301.837325142376 L 884 1312 L 888.209517756016 1301.837325142376 L 879.790482243984 1301.837325142376" stroke-miterlimit="10"/></g><g transform="translate(-774,-670) scale(1,1)"><path fill="#ffffff" stroke="none" d="M 1159 880 L 1240.63720703125 880 Q 1263.63720703125 880 1263.63720703125 903 L 1263.63720703125 902 Q 1263.63720703125 925 1240.63720703125 925 L 1159 925 Q 1136 925 1136 902 L 1136 903 Q 1136 880 1159 880 Z"/></g><g transform="translate(-774,-670) scale(1,1)"><path fill="none" stroke="#000000" d="M 1159 880 L 1240.63720703125 880 Q 1263.63720703125 880 1263.63720703125 903 L 1263.63720703125 902 Q 1263.63720703125 925 1240.63720703125 925 L 1159 925 Q 1136 925 1136 902 L 1136 903 Q 1136 880 1159 880 Z" stroke-miterlimit="10"/></g><g transform="translate(-774,-670) scale(1,1)"><g><path fill="none" stroke="none"/><text fill="#000000" stroke="none" font-family="Arial" font-size="13px" font-style="normal" font-weight="normal" text-decoration="none" x="1152.12548828125" y="901">Display only one</text><text fill="#000000" stroke="none" font-family="Arial" font-size="13px" font-style="normal" font-weight="normal" text-decoration="none" x="1183.194091796875" y="914">graph</text></g></g><g transform="translate(-774,-670) scale(1,1)"><path fill="none" stroke="#000000" d="M 960 900 L 1136 900" stroke-miterlimit="10"/></g><g transform="translate(-774,-670) scale(1,1)"><path fill="#000000" stroke="none" d="M 1125.837325142376 904.209517756016 L 1136 900 L 1125.837325142376 895.790482243984"/></g><g transform="translate(-774,-670) scale(1,1)"><path fill="none" stroke="#000000" d="M 1125.837325142376 904.209517756016 L 1136 900 L 1125.837325142376 895.790482243984 L 1125.837325142376 904.209517756016" stroke-miterlimit="10"/></g><g transform="translate(-774,-670) scale(1,1)"><g><path fill="none" stroke="none"/><text fill="#000000" stroke="none" font-family="Arial" font-size="13px" font-style="normal" font-weight="normal" text-decoration="none" x="1039.5" y="890">No</text></g></g><g transform="translate(-774,-670) scale(1,1)"><path fill="#ffffff" stroke="none" d="M 808 1504.5 L 892.58447265625 1440 L 977.1689453125 1504.5 L 892.58447265625 1569 L 808 1504.5"/></g><g transform="translate(-774,-670) scale(1,1)"><path fill="none" stroke="#000000" d="M 808 1504.5 L 892.58447265625 1440 L 977.1689453125 1504.5 L 892.58447265625 1569 L 808 1504.5 L 808 1504.5" stroke-miterlimit="10"/></g><g transform="translate(-774,-670) scale(1,1)"><g><path fill="none" stroke="none"/><text fill="#000000" stroke="none" font-family="Arial" font-size="13px" font-style="normal" font-weight="normal" text-decoration="none" x="866.574951171875" y="1483.5">Has user</text><text fill="#000000" stroke="none" font-family="Arial" font-size="13px" font-style="normal" font-weight="normal" text-decoration="none" x="852.838623046875" y="1496.5">clicked button</text><text fill="#000000" stroke="none" font-family="Arial" font-size="13px" font-style="normal" font-weight="normal" text-decoration="none" x="854.65087890625" y="1509.5">to view next /</text><text fill="#000000" stroke="none" font-family="Arial" font-size="13px" font-style="normal" font-weight="normal" text-decoration="none" x="868.015869140625" y="1522.5">previous</text><text fill="#000000" stroke="none" font-family="Arial" font-size="13px" font-style="normal" font-weight="normal" text-decoration="none" x="872.344970703125" y="1535.5">graph?</text></g></g><g transform="translate(-774,-670) scale(1,1)"><path fill="#ffffff" stroke="none" d="M 1165.5 1464 L 1234.5 1464 Q 1264 1464 1264 1493.5 L 1264 1492.5 Q 1264 1522 1234.5 1522 L 1165.5 1522 Q 1136 1522 1136 1492.5 L 1136 1493.5 Q 1136 1464 1165.5 1464 Z"/></g><g transform="translate(-774,-670) scale(1,1)"><path fill="none" stroke="#000000" d="M 1165.5 1464 L 1234.5 1464 Q 1264 1464 1264 1493.5 L 1264 1492.5 Q 1264 1522 1234.5 1522 L 1165.5 1522 Q 1136 1522 1136 1492.5 L 1136 1493.5 Q 1136 1464 1165.5 1464 Z" stroke-miterlimit="10"/></g><g transform="translate(-774,-670) scale(1,1)"><g><path fill="none" stroke="none"/><text fill="#000000" stroke="none" font-family="Arial" font-size="13px" font-style="normal" font-weight="normal" text-decoration="none" x="1173.98095703125" y="1485">Continue</text><text fill="#000000" stroke="none" font-family="Arial" font-size="13px" font-style="normal" font-weight="normal" text-decoration="none" x="1149.056884765625" y="1498">displaying current</text><text fill="#000000" stroke="none" font-family="Arial" font-size="13px" font-style="normal" font-weight="normal" text-decoration="none" x="1183.37548828125" y="1511">graph</text></g></g><g transform="translate(-774,-670) scale(1,1)"><path fill="#ffffff" stroke="none" d="M 807 1688 L 961 1688 Q 984 1688 984 1711 L 984 1710 Q 984 1733 961 1733 L 807 1733 Q 784 1733 784 1710 L 784 1711 Q 784 1688 807 1688 Z"/></g><g transform="translate(-774,-670) scale(1,1)"><path fill="none" stroke="#000000" d="M 807 1688 L 961 1688 Q 984 1688 984 1711 L 984 1710 Q 984 1733 961 1733 L 807 1733 Q 784 1733 784 1710 L 784 1711 Q 784 1688 807 1688 Z" stroke-miterlimit="10"/></g><g transform="translate(-774,-670) scale(1,1)"><g><path fill="none" stroke="none"/><text fill="#000000" stroke="none" font-family="Arial" font-size="13px" font-style="normal" font-weight="normal" text-decoration="none" x="798.7255859375" y="1709">Change view to display graph</text><text fill="#000000" stroke="none" font-family="Arial" font-size="13px" font-style="normal" font-weight="normal" text-decoration="none" x="809.94189453125" y="1722">from previous / next week</text></g></g><g transform="translate(-774,-670) scale(1,1)"><path fill="none" stroke="#000000" d="M 889 1569 L 889 1688" stroke-miterlimit="10"/></g><g transform="translate(-774,-670) scale(1,1)"><path fill="#000000" stroke="none" d="M 884.790482243984 1677.837325142376 L 889 1688 L 893.209517756016 1677.837325142376"/></g><g transform="translate(-774,-670) scale(1,1)"><path fill="none" stroke="#000000" d="M 884.790482243984 1677.837325142376 L 889 1688 L 893.209517756016 1677.837325142376 L 884.790482243984 1677.837325142376" stroke-miterlimit="10"/></g><g transform="translate(-774,-670) scale(1,1)"><g><path fill="none" stroke="none"/><text fill="#000000" stroke="none" font-family="Arial" font-size="13px" font-style="normal" font-weight="normal" text-decoration="none" x="892.5" y="1632">Yes</text></g></g><g transform="translate(-774,-670) scale(1,1)"><path fill="none" stroke="#000000" d="M 977 1504 L 1136 1504" stroke-miterlimit="10"/></g><g transform="translate(-774,-670) scale(1,1)"><path fill="#000000" stroke="none" d="M 1125.837325142376 1508.2095177560159 L 1136 1504 L 1125.837325142376 1499.7904822439841"/></g><g transform="translate(-774,-670) scale(1,1)"><path fill="none" stroke="#000000" d="M 1125.837325142376 1508.2095177560159 L 1136 1504 L 1125.837325142376 1499.7904822439841 L 1125.837325142376 1508.2095177560159" stroke-miterlimit="10"/></g><g transform="translate(-774,-670) scale(1,1)"><g><path fill="none" stroke="none"/><text fill="#000000" stroke="none" font-family="Arial" font-size="13px" font-style="normal" font-weight="normal" text-decoration="none" x="1047.5" y="1494">No</text></g></g><g transform="translate(-774,-670) scale(1,1)"><path fill="none" stroke="#000000" d="M 885 1370 L 885 1440" stroke-miterlimit="10"/></g><g transform="translate(-774,-670) scale(1,1)"><path fill="#000000" stroke="none" d="M 880.790482243984 1429.837325142376 L 885 1440 L 889.209517756016 1429.837325142376"/></g><g transform="translate(-774,-670) scale(1,1)"><path fill="none" stroke="#000000" d="M 880.790482243984 1429.837325142376 L 885 1440 L 889.209517756016 1429.837325142376 L 880.790482243984 1429.837325142376" stroke-miterlimit="10"/></g></g></svg>