<svg version="1.1" xmlns="http://www.w3.org/2000/svg" xmlns:xlink="http://www.w3.org/1999/xlink" width="501.18994140625" height="809"><defs/><g><text fill="#eeeeee" stroke="none" font-family="Arial" font-size="24px" font-style="normal" font-weight="normal" text-decoration="none" x="0" y="0">UNREGISTERED</text><text fill="#eeeeee" stroke="none" font-family="Arial" font-size="24px" font-style="normal" font-weight="normal" text-decoration="none" x="0" y="30">UNREGISTERED</text><text fill="#eeeeee" stroke="none" font-family="Arial" font-size="24px" font-style="normal" font-weight="normal" text-decoration="none" x="0" y="60">UNREGISTERED</text><text fill="#eeeeee" stroke="none" font-family="Arial" font-size="24px" font-style="normal" font-weight="normal" text-decoration="none" x="0" y="90">UNREGISTERED</text><text fill="#eeeeee" stroke="none" font-family="Arial" font-size="24px" font-style="normal" font-weight="normal" text-decoration="none" x="0" y="120">UNREGISTERED</text><text fill="#eeeeee" stroke="none" font-family="Arial" font-size="24px" font-style="normal" font-weight="normal" text-decoration="none" x="0" y="150">UNREGISTERED</text><text fill="#eeeeee" stroke="none" font-family="Arial" font-size="24px" font-style="normal" font-weight="normal" text-decoration="none" x="0" y="180">UNREGISTERED</text><text fill="#eeeeee" stroke="none" font-family="Arial" font-size="24px" font-style="normal" font-weight="normal" text-decoration="none" x="0" y="210">UNREGISTERED</text><text fill="#eeeeee" stroke="none" font-family="Arial" font-size="24px" font-style="normal" font-weight="normal" text-decoration="none" x="0" y="240">UNREGISTERED</text><text fill="#eeeeee" stroke="none" font-family="Arial" font-size="24px" font-style="normal" font-weight="normal" text-decoration="none" x="0" y="270">UNREGISTERED</text><text fill="#eeeeee" stroke="none" font-family="Arial" font-size="24px" font-style="normal" font-weight="normal" text-decoration="none" x="0" y="300">UNREGISTERED</text><text fill="#eeeeee" stroke="none" font-family="Arial" font-size="24px" font-style="normal" font-weight="normal" text-decoration="none" x="0" y="330">UNREGISTERED</text><text fill="#eeeeee" stroke="none" font-family="Arial" font-size="24px" font-style="normal" font-weight="normal" text-decoration="none" x="0" y="360">UNREGISTERED</text><text fill="#eeeeee" stroke="none" font-family="Arial" font-size="24px" font-style="normal" font-weight="normal" text-decoration="none" x="0" y="390">UNREGISTERED</text><text fill="#eeeeee" stroke="none" font-family="Arial" font-size="24px" font-style="normal" font-weight="normal" text-decoration="none" x="0" y="420">UNREGISTERED</text><text fill="#eeeeee" stroke="none" font-family="Arial" font-size="24px" font-style="normal" font-weight="normal" text-decoration="none" x="0" y="450">UNREGISTERED</text><text fill="#eeeeee" stroke="none" font-family="Arial" font-size="24px" font-style="normal" font-weight="normal" text-decoration="none" x="0" y="480">UNREGISTERED</text><text fill="#eeeeee" stroke="none" font-family="Arial" font-size="24px" font-style="normal" font-weight="normal" text-decoration="none" x="0" y="510">UNREGISTERED</text><text fill="#eeeeee" stroke="none" font-family="Arial" font-size="24px" font-style="normal" font-weight="normal" text-decoration="none" x="0" y="540">UNREGISTERED</text><text fill="#eeeeee" stroke="none" font-family="Arial" font-size="24px" font-style="normal" font-weight="normal" text-decoration="none" x="0" y="570">UNREGISTERED</text><text fill="#eeeeee" stroke="none" font-family="Arial" font-size="24px" font-style="normal" font-weight="normal" text-decoration="none" x="0" y="600">UNREGISTERED</text><text fill="#eeeeee" stroke="none" font-family="Arial" font-size="24px" font-style="normal" font-weight="normal" text-decoration="none" x="0" y="630">UNREGISTERED</text><text fill="#eeeeee" stroke="none" font-family="Arial" font-size="24px" font-style="normal" font-weight="normal" text-decoration="none" x="0" y="660">UNREGISTERED</text><text fill="#eeeeee" stroke="none" font-family="Arial" font-size="24px" font-style="normal" font-weight="normal" text-decoration="none" x="0" y="690">UNREGISTERED</text><text fill="#eeeeee" stroke="none" font-family="Arial" font-size="24px" font-style="normal" font-weight="normal" text-decoration="none" x="0" y="720">UNREGISTERED</text><text fill="#eeeeee" stroke="none" font-family="Arial" font-size="24px" font-style="normal" font-weight="normal" text-decoration="none" x="0" y="750">UNREGISTERED</text><text fill="#eeeeee" stroke="none" font-family="Arial" font-size="24px" font-style="normal" font-weight="normal" text-decoration="none" x="0" y="780">UNREGISTERED</text><text fill="#eeeeee" stroke="none" font-family="Arial" font-size="24px" font-style="normal" font-weight="normal" text-decoration="none" x="200" y="0">UNREGISTERED</text><text fill="#eeeeee" stroke="none" font-family="Arial" font-size="24px" font-style="normal" font-weight="normal" text-decoration="none" x="200" y="30">UNREGISTERED</text><text fill="#eeeeee" stroke="none" font-family="Arial" font-size="24px" font-style="normal" font-weight="normal" text-decoration="none" x="200" y="60">UNREGISTERED</text><text fill="#eeeeee" stroke="none" font-family="Arial" font-size="24px" font-style="normal" font-weight="normal" text-decoration="none" x="200" y="90">UNREGISTERED</text><text fill="#eeeeee" stroke="none" font-family="Arial" font-size="24px" font-style="normal" font-weight="normal" text-decoration="none" x="200" y="120">UNREGISTERED</text><text fill="#eeeeee" stroke="none" font-family="Arial" font-size="24px" font-style="normal" font-weight="normal" text-decoration="none" x="200" y="150">UNREGISTERED</text><text fill="#eeeeee" stroke="none" font-family="Arial" font-size="24px" font-style="normal" font-weight="normal" text-decoration="none" x="200" y="180">UNREGISTERED</text><text fill="#eeeeee" stroke="none" font-family="Arial" font-size="24px" font-style="normal" font-weight="normal" text-decoration="none" x="200" y="210">UNREGISTERED</text><text fill="#eeeeee" stroke="none" font-family="Arial" font-size="24px" font-style="normal" font-weight="normal" text-decoration="none" x="200" y="240">UNREGISTERED</text><text fill="#eeeeee" stroke="none" font-family="Arial" font-size="24px" font-style="normal" font-weight="normal" text-decoration="none" x="200" y="270">UNREGISTERED</text><text fill="#eeeeee" stroke="none" font-family="Arial" font-size="24px" font-style="normal" font-weight="normal" text-decoration="none" x="200" y="300">UNREGISTERED</text><text fill="#eeeeee" stroke="none" font-family="Arial" font-size="24px" font-style="normal" font-weight="normal" text-decoration="none" x="200" y="330">UNREGISTERED</text><text fill="#eeeeee" stroke="none" font-family="Arial" font-size="24px" font-style="normal" font-weight="normal" text-decoration="none" x="200" y="360">UNREGISTERED</text><text fill="#eeeeee" stroke="none" font-family="Arial" font-size="24px" font-style="normal" font-weight="normal" text-decoration="none" x="200" y="390">UNREGISTERED</text><text fill="#eeeeee" stroke="none" font-family="Arial" font-size="24px" font-style="normal" font-weight="normal" text-decoration="none" x="200" y="420">UNREGISTERED</text><text fill="#eeeeee" stroke="none" font-family="Arial" font-size="24px" font-style="normal" font-weight="normal" text-decoration="none" x="200" y="450">UNREGISTERED</text><text fill="#eeeeee" stroke="none" font-family="Arial" font-size="24px" font-style="normal" font-weight="normal" text-decoration="none" x="200" y="480">UNREGISTERED</text><text fill="#eeeeee" stroke="none" font-family="Arial" font-size="24px" font-style="normal" font-weight="normal" text-decoration="none" x="200" y="510">UNREGISTERED</text><text fill="#eeeeee" stroke="none" font-family="Arial" font-size="24px" font-style="normal" font-weight="normal" text-decoration="none" x="200" y="540">UNREGISTERED</text><text fill="#eeeeee" stroke="none" font-family="Arial" font-size="24px" font-style="normal" font-weight="normal" text-decoration="none" x="200" y="570">UNREGISTERED</text><text fill="#eeeeee" stroke="none" font-family="Arial" font-size="24px" font-style="normal" font-weight="normal" text-decoration="none" x="200" y="600">UNREGISTERED</text><text fill="#eeeeee" stroke="none" font-family="Arial" font-size="24px" font-style="normal" font-weight="normal" text-decoration="none" x="200" y="630">UNREGISTERED</text><text fill="#eeeeee" stroke="none" font-family="Arial" font-size="24px" font-style="normal" font-weight="normal" text-decoration="none" x="200" y="660">UNREGISTERED</text><text fill="#eeeeee" stroke="none" font-family="Arial" font-size="24px" font-style="normal" font-weight="normal" text-decoration="none" x="200" y="690">UNREGISTERED</text><text fill="#eeeeee" stroke="none" font-family="Arial" font-size="24px" font-style="normal" font-weight="normal" text-decoration="none" x="200" y="720">UNREGISTERED</text><text fill="#eeeeee" stroke="none" font-family="Arial" font-size="24px" font-style="normal" font-weight="normal" text-decoration="none" x="200" y="750">UNREGISTERED</text><text fill="#eeeeee" stroke="none" font-family="Arial" font-size="24px" font-style="normal" font-weight="normal" text-decoration="none" x="200" y="780">UNREGISTERED</text><text fill="#eeeeee" stroke="none" font-family="Arial" font-size="24px" font-style="normal" font-weight="normal" text-decoration="none" x="400" y="0">UNREGISTERED</text><text fill="#eeeeee" stroke="none" font-family="Arial" font-size="24px" font-style="normal" font-weight="normal" text-decoration="none" x="400" y="30">UNREGISTERED</text><text fill="#eeeeee" stroke="none" font-family="Arial" font-size="24px" font-style="normal" font-weight="normal" text-decoration="none" x="400" y="60">UNREGISTERED</text><text fill="#eeeeee" stroke="none" font-family="Arial" font-size="24px" font-style="normal" font-weight="normal" text-decoration="none" x="400" y="90">UNREGISTERED</text><text fill="#eeeeee" stroke="none" font-family="Arial" font-size="24px" font-style="normal" font-weight="normal" text-decoration="none" x="400" y="120">UNREGISTERED</text><text fill="#eeeeee" stroke="none" font-family="Arial" font-size="24px" font-style="normal" font-weight="normal" text-decoration="none" x="400" y="150">UNREGISTERED</text><text fill="#eeeeee" stroke="none" font-family="Arial" font-size="24px" font-style="normal" font-weight="normal" text-decoration="none" x="400" y="180">UNREGISTERED</text><text fill="#eeeeee" stroke="none" font-family="Arial" font-size="24px" font-style="normal" font-weight="normal" text-decoration="none" x="400" y="210">UNREGISTERED</text><text fill="#eeeeee" stroke="none" font-family="Arial" font-size="24px" font-style="normal" font-weight="normal" text-decoration="none" x="400" y="240">UNREGISTERED</text><text fill="#eeeeee" stroke="none" font-family="Arial" font-size="24px" font-style="normal" font-weight="normal" text-decoration="none" x="400" y="270">UNREGISTERED</text><text fill="#eeeeee" stroke="none" font-family="Arial" font-size="24px" font-style="normal" font-weight="normal" text-decoration="none" x="400" y="300">UNREGISTERED</text><text fill="#eeeeee" stroke="none" font-family="Arial" font-size="24px" font-style="normal" font-weight="normal" text-decoration="none" x="400" y="330">UNREGISTERED</text><text fill="#eeeeee" stroke="none" font-family="Arial" font-size="24px" font-style="normal" font-weight="normal" text-decoration="none" x="400" y="360">UNREGISTERED</text><text fill="#eeeeee" stroke="none" font-family="Arial" font-size="24px" font-style="normal" font-weight="normal" text-decoration="none" x="400" y="390">UNREGISTERED</text><text fill="#eeeeee" stroke="none" font-family="Arial" font-size="24px" font-style="normal" font-weight="normal" text-decoration="none" x="400" y="420">UNREGISTERED</text><text fill="#eeeeee" stroke="none" font-family="Arial" font-size="24px" font-style="normal" font-weight="normal" text-decoration="none" x="400" y="450">UNREGISTERED</text><text fill="#eeeeee" stroke="none" font-family="Arial" font-size="24px" font-style="normal" font-weight="normal" text-decoration="none" x="400" y="480">UNREGISTERED</text><text fill="#eeeeee" stroke="none" font-family="Arial" font-size="24px" font-style="normal" font-weight="normal" text-decoration="none" x="400" y="510">UNREGISTERED</text><text fill="#eeeeee" stroke="none" font-family="Arial" font-size="24px" font-style="normal" font-weight="normal" text-decoration="none" x="400" y="540">UNREGISTERED</text><text fill="#eeeeee" stroke="none" font-family="Arial" font-size="24px" font-style="normal" font-weight="normal" text-decoration="none" x="400" y="570">UNREGISTERED</text><text fill="#eeeeee" stroke="none" font-family="Arial" font-size="24px" font-style="normal" font-weight="normal" text-decoration="none" x="400" y="600">UNREGISTERED</text><text fill="#eeeeee" stroke="none" font-family="Arial" font-size="24px" font-style="normal" font-weight="normal" text-decoration="none" x="400" y="630">UNREGISTERED</text><text fill="#eeeeee" stroke="none" font-family="Arial" font-size="24px" font-style="normal" font-weight="normal" text-decoration="none" x="400" y="660">UNREGISTERED</text><text fill="#eeeeee" stroke="none" font-family="Arial" font-size="24px" font-style="normal" font-weight="normal" text-decoration="none" x="400" y="690">UNREGISTERED</text><text fill="#eeeeee" stroke="none" font-family="Arial" font-size="24px" font-style="normal" font-weight="normal" text-decoration="none" x="400" y="720">UNREGISTERED</text><text fill="#eeeeee" stroke="none" font-family="Arial" font-size="24px" font-style="normal" font-weight="normal" text-decoration="none" x="400" y="750">UNREGISTERED</text><text fill="#eeeeee" stroke="none" font-family="Arial" font-size="24px" font-style="normal" font-weight="normal" text-decoration="none" x="400" y="780">UNREGISTERED</text><g transform="translate(-398,-262) scale(1,1)"><rect fill="#ffffff" stroke="none" x="416" y="272" width="121.18994140625" height="45"/></g><g transform="translate(-398,-262) scale(1,1)"><path fill="none" stroke="#000000" d="M 416 272 L 537.18994140625 272 L 537.18994140625 317 L 416 317 L 416 272 Z Z" stroke-miterlimit="10"/></g><g transform="translate(-398,-262) scale(1,1)"><g><path fill="none" stroke="none"/><text fill="#000000" stroke="none" font-family="Arial" font-size="13px" font-style="normal" font-weight="normal" text-decoration="none" x="447.33544921875" y="293">User is on</text><text fill="#000000" stroke="none" font-family="Arial" font-size="13px" font-style="normal" font-weight="normal" text-decoration="none" x="432.878662109375" y="306">settings screen</text></g></g><g transform="translate(-398,-262) scale(1,1)"><rect fill="#ffffff" stroke="none" x="416" y="344" width="129.18994140625" height="45"/></g><g transform="translate(-398,-262) scale(1,1)"><path fill="none" stroke="#000000" d="M 416 344 L 545.18994140625 344 L 545.18994140625 389 L 416 389 L 416 344 Z Z" stroke-miterlimit="10"/></g><g transform="translate(-398,-262) scale(1,1)"><g><path fill="none" stroke="none"/><text fill="#000000" stroke="none" font-family="Arial" font-size="13px" font-style="normal" font-weight="normal" text-decoration="none" x="426.04638671875" y="365">User clicks change</text><text fill="#000000" stroke="none" font-family="Arial" font-size="13px" font-style="normal" font-weight="normal" text-decoration="none" x="446.27001953125" y="378">current goal</text></g></g><g transform="translate(-398,-262) scale(1,1)"><rect fill="#ffffff" stroke="none" x="424" y="536" width="129.18994140625" height="45"/></g><g transform="translate(-398,-262) scale(1,1)"><path fill="none" stroke="#000000" d="M 424 536 L 553.18994140625 536 L 553.18994140625 581 L 424 581 L 424 536 Z Z" stroke-miterlimit="10"/></g><g transform="translate(-398,-262) scale(1,1)"><g><path fill="none" stroke="none"/><text fill="#000000" stroke="none" font-family="Arial" font-size="13px" font-style="normal" font-weight="normal" text-decoration="none" x="441.990478515625" y="557">User inputs new</text><text fill="#000000" stroke="none" font-family="Arial" font-size="13px" font-style="normal" font-weight="normal" text-decoration="none" x="438.00732421875" y="570">goal into text field</text></g></g><g transform="translate(-398,-262) scale(1,1)"><path fill="#ffffff" stroke="none" d="M 408 884 L 488 816 L 568 884 L 488 952 L 408 884"/></g><g transform="translate(-398,-262) scale(1,1)"><path fill="none" stroke="#000000" d="M 408 884 L 488 816 L 568 884 L 488 952 L 408 884 L 408 884" stroke-miterlimit="10"/></g><g transform="translate(-398,-262) scale(1,1)"><g><path fill="none" stroke="none"/><text fill="#000000" stroke="none" font-family="Arial" font-size="13px" font-style="normal" font-weight="normal" text-decoration="none" x="455.119140625" y="876">Is new goal</text><text fill="#000000" stroke="none" font-family="Arial" font-size="13px" font-style="normal" font-weight="normal" text-decoration="none" x="456.925048828125" y="889">identical to</text><text fill="#000000" stroke="none" font-family="Arial" font-size="13px" font-style="normal" font-weight="normal" text-decoration="none" x="450.06005859375" y="902">current goal?</text></g></g><g transform="translate(-398,-262) scale(1,1)"><rect fill="#ffffff" stroke="none" x="424" y="432" width="121.919921875" height="58"/></g><g transform="translate(-398,-262) scale(1,1)"><path fill="none" stroke="#000000" d="M 424 432 L 545.919921875 432 L 545.919921875 490 L 424 490 L 424 432 Z Z" stroke-miterlimit="10"/></g><g transform="translate(-398,-262) scale(1,1)"><g><path fill="none" stroke="none"/><text fill="#000000" stroke="none" font-family="Arial" font-size="13px" font-style="normal" font-weight="normal" text-decoration="none" x="435.470458984375" y="453">User is prompted</text><text fill="#000000" stroke="none" font-family="Arial" font-size="13px" font-style="normal" font-weight="normal" text-decoration="none" x="435.813232421875" y="466">to input new goal</text><text fill="#000000" stroke="none" font-family="Arial" font-size="13px" font-style="normal" font-weight="normal" text-decoration="none" x="448.46728515625" y="479">into text field</text></g></g><g transform="translate(-398,-262) scale(1,1)"><path fill="#ffffff" stroke="none" d="M 416 688.5 L 492.58447265625 624 L 569.1689453125 688.5 L 492.58447265625 753 L 416 688.5"/></g><g transform="translate(-398,-262) scale(1,1)"><path fill="none" stroke="#000000" d="M 416 688.5 L 492.58447265625 624 L 569.1689453125 688.5 L 492.58447265625 753 L 416 688.5 L 416 688.5" stroke-miterlimit="10"/></g><g transform="translate(-398,-262) scale(1,1)"><g><path fill="none" stroke="none"/><text fill="#000000" stroke="none" font-family="Arial" font-size="13px" font-style="normal" font-weight="normal" text-decoration="none" x="463.3154296875" y="674">Does goal</text><text fill="#000000" stroke="none" font-family="Arial" font-size="13px" font-style="normal" font-weight="normal" text-decoration="none" x="471.62451171875" y="687">exceed</text><text fill="#000000" stroke="none" font-family="Arial" font-size="13px" font-style="normal" font-weight="normal" text-decoration="none" x="465.489501953125" y="700">character</text><text fill="#000000" stroke="none" font-family="Arial" font-size="13px" font-style="normal" font-weight="normal" text-decoration="none" x="477.416748046875" y="713">limit?</text></g></g><g transform="translate(-398,-262) scale(1,1)"><path fill="#ffffff" stroke="none" d="M 447 1016 L 529 1016 Q 552 1016 552 1039 L 552 1038 Q 552 1061 529 1061 L 447 1061 Q 424 1061 424 1038 L 424 1039 Q 424 1016 447 1016 Z"/></g><g transform="translate(-398,-262) scale(1,1)"><path fill="none" stroke="#000000" d="M 447 1016 L 529 1016 Q 552 1016 552 1039 L 552 1038 Q 552 1061 529 1061 L 447 1061 Q 424 1061 424 1038 L 424 1039 Q 424 1016 447 1016 Z" stroke-miterlimit="10"/></g><g transform="translate(-398,-262) scale(1,1)"><g><path fill="none" stroke="none"/><text fill="#000000" stroke="none" font-family="Arial" font-size="13px" font-style="normal" font-weight="normal" text-decoration="none" x="445.004150390625" y="1037">Update current</text><text fill="#000000" stroke="none" font-family="Arial" font-size="13px" font-style="normal" font-weight="normal" text-decoration="none" x="434.52099609375" y="1050">goal with new goal</text></g></g><g transform="translate(-398,-262) scale(1,1)"><rect fill="#ffffff" stroke="none" x="680" y="656" width="145.18994140625" height="71"/></g><g transform="translate(-398,-262) scale(1,1)"><path fill="none" stroke="#000000" d="M 680 656 L 825.18994140625 656 L 825.18994140625 727 L 680 727 L 680 656 Z Z" stroke-miterlimit="10"/></g><g transform="translate(-398,-262) scale(1,1)"><g><path fill="none" stroke="none"/><text fill="#000000" stroke="none" font-family="Arial" font-size="13px" font-style="normal" font-weight="normal" text-decoration="none" x="715.753173828125" y="677">Display error</text><text fill="#000000" stroke="none" font-family="Arial" font-size="13px" font-style="normal" font-weight="normal" text-decoration="none" x="692.977783203125" y="690">message saying that</text><text fill="#000000" stroke="none" font-family="Arial" font-size="13px" font-style="normal" font-weight="normal" text-decoration="none" x="692.6064453125" y="703">the goal exceeds the</text><text fill="#000000" stroke="none" font-family="Arial" font-size="13px" font-style="normal" font-weight="normal" text-decoration="none" x="712.141357421875" y="716">character limit</text></g></g><g transform="translate(-398,-262) scale(1,1)"><rect fill="#ffffff" stroke="none" x="760" y="824" width="129.18994140625" height="84"/></g><g transform="translate(-398,-262) scale(1,1)"><path fill="none" stroke="#000000" d="M 760 824 L 889.18994140625 824 L 889.18994140625 908 L 760 908 L 760 824 Z Z" stroke-miterlimit="10"/></g><g transform="translate(-398,-262) scale(1,1)"><g><path fill="none" stroke="none"/><text fill="#000000" stroke="none" font-family="Arial" font-size="13px" font-style="normal" font-weight="normal" text-decoration="none" x="787.753173828125" y="845">Display error</text><text fill="#000000" stroke="none" font-family="Arial" font-size="13px" font-style="normal" font-weight="normal" text-decoration="none" x="777.263671875" y="858">message stating</text><text fill="#000000" stroke="none" font-family="Arial" font-size="13px" font-style="normal" font-weight="normal" text-decoration="none" x="792.075927734375" y="871">new goal is</text><text fill="#000000" stroke="none" font-family="Arial" font-size="13px" font-style="normal" font-weight="normal" text-decoration="none" x="782.67822265625" y="884">identical to the</text><text fill="#000000" stroke="none" font-family="Arial" font-size="13px" font-style="normal" font-weight="normal" text-decoration="none" x="798.575927734375" y="897">new goal</text></g></g><g transform="translate(-398,-262) scale(1,1)"><path fill="none" stroke="#000000" d="M 477 317 L 477 344" stroke-miterlimit="10"/></g><g transform="translate(-398,-262) scale(1,1)"><path fill="#000000" stroke="none" d="M 472.790482243984 333.83732514237585 L 477 344 L 481.209517756016 333.83732514237585"/></g><g transform="translate(-398,-262) scale(1,1)"><path fill="none" stroke="#000000" d="M 472.790482243984 333.83732514237585 L 477 344 L 481.209517756016 333.83732514237585 L 472.790482243984 333.83732514237585" stroke-miterlimit="10"/></g><g transform="translate(-398,-262) scale(1,1)"><path fill="none" stroke="#000000" d="M 481 389 L 481 432" stroke-miterlimit="10"/></g><g transform="translate(-398,-262) scale(1,1)"><path fill="#000000" stroke="none" d="M 476.790482243984 421.83732514237585 L 481 432 L 485.209517756016 421.83732514237585"/></g><g transform="translate(-398,-262) scale(1,1)"><path fill="none" stroke="#000000" d="M 476.790482243984 421.83732514237585 L 481 432 L 485.209517756016 421.83732514237585 L 476.790482243984 421.83732514237585" stroke-miterlimit="10"/></g><g transform="translate(-398,-262) scale(1,1)"><path fill="none" stroke="#000000" d="M 485 490 L 485 536" stroke-miterlimit="10"/></g><g transform="translate(-398,-262) scale(1,1)"><path fill="#000000" stroke="none" d="M 480.790482243984 525.8373251423759 L 485 536 L 489.209517756016 525.8373251423759"/></g><g transform="translate(-398,-262) scale(1,1)"><path fill="none" stroke="#000000" d="M 480.790482243984 525.8373251423759 L 485 536 L 489.209517756016 525.8373251423759 L 480.790482243984 525.8373251423759" stroke-miterlimit="10"/></g><g transform="translate(-398,-262) scale(1,1)"><path fill="none" stroke="#000000" d="M 489 581 L 489 624" stroke-miterlimit="10"/></g><g transform="translate(-398,-262) scale(1,1)"><path fill="#000000" stroke="none" d="M 484.790482243984 613.8373251423759 L 489 624 L 493.209517756016 613.8373251423759"/></g><g transform="translate(-398,-262) scale(1,1)"><path fill="none" stroke="#000000" d="M 484.790482243984 613.8373251423759 L 489 624 L 493.209517756016 613.8373251423759 L 484.790482243984 613.8373251423759" stroke-miterlimit="10"/></g><g transform="translate(-398,-262) scale(1,1)"><path fill="none" stroke="#000000" d="M 569 690 L 680 690" stroke-miterlimit="10"/></g><g transform="translate(-398,-262) scale(1,1)"><path fill="#000000" stroke="none" d="M 669.8373251423759 694.209517756016 L 680 690 L 669.8373251423758 685.790482243984"/></g><g transform="translate(-398,-262) scale(1,1)"><path fill="none" stroke="#000000" d="M 669.8373251423759 694.209517756016 L 680 690 L 669.8373251423758 685.790482243984 L 669.8373251423759 694.209517756016" stroke-miterlimit="10"/></g><g transform="translate(-398,-262) scale(1,1)"><g><path fill="none" stroke="none"/><text fill="#000000" stroke="none" font-family="Arial" font-size="13px" font-style="normal" font-weight="normal" text-decoration="none" x="613.5" y="680">Yes</text></g></g><g transform="translate(-398,-262) scale(1,1)"><path fill="none" stroke="#000000" d="M 491 753 L 491 816" stroke-miterlimit="10"/></g><g transform="translate(-398,-262) scale(1,1)"><path fill="#000000" stroke="none" d="M 486.790482243984 805.8373251423759 L 491 816 L 495.209517756016 805.8373251423759"/></g><g transform="translate(-398,-262) scale(1,1)"><path fill="none" stroke="#000000" d="M 486.790482243984 805.8373251423759 L 491 816 L 495.209517756016 805.8373251423759 L 486.790482243984 805.8373251423759" stroke-miterlimit="10"/></g><g transform="translate(-398,-262) scale(1,1)"><g><path fill="none" stroke="none"/><text fill="#000000" stroke="none" font-family="Arial" font-size="13px" font-style="normal" font-weight="normal" text-decoration="none" x="496.5" y="788">No</text></g></g><g transform="translate(-398,-262) scale(1,1)"><path fill="none" stroke="#000000" d="M 568 883 L 760 883" stroke-miterlimit="10"/></g><g transform="translate(-398,-262) scale(1,1)"><path fill="#000000" stroke="none" d="M 749.8373251423759 887.209517756016 L 760 883 L 749.8373251423758 878.790482243984"/></g><g transform="translate(-398,-262) scale(1,1)"><path fill="none" stroke="#000000" d="M 749.8373251423759 887.209517756016 L 760 883 L 749.8373251423758 878.790482243984 L 749.8373251423759 887.209517756016" stroke-miterlimit="10"/></g><g transform="translate(-398,-262) scale(1,1)"><g><path fill="none" stroke="none"/><text fill="#000000" stroke="none" font-family="Arial" font-size="13px" font-style="normal" font-weight="normal" text-decoration="none" x="653.5" y="873">Yes</text></g></g><g transform="translate(-398,-262) scale(1,1)"><path fill="none" stroke="#000000" d="M 488 952 L 488 1016" stroke-miterlimit="10"/></g><g transform="translate(-398,-262) scale(1,1)"><path fill="#000000" stroke="none" d="M 483.790482243984 1005.8373251423759 L 488 1016 L 492.209517756016 1005.8373251423759"/></g><g transform="translate(-398,-262) scale(1,1)"><path fill="none" stroke="#000000" d="M 483.790482243984 1005.8373251423759 L 488 1016 L 492.209517756016 1005.8373251423759 L 483.790482243984 1005.8373251423759" stroke-miterlimit="10"/></g><g transform="translate(-398,-262) scale(1,1)"><g><path fill="none" stroke="none"/><text fill="#000000" stroke="none" font-family="Arial" font-size="13px" font-style="normal" font-weight="normal" text-decoration="none" x="493.5" y="988">No</text></g></g><g transform="translate(-398,-262) scale(1,1)"><path fill="none" stroke="#000000" d="M 856 824 L 856 464 M 856 464 A 8 8 0 0 0 848 456 L 546 456" stroke-miterlimit="10"/></g><g transform="translate(-398,-262) scale(1,1)"><path fill="#000000" stroke="none" d="M 556.1626748576241 451.790482243984 L 546 456 L 556.1626748576241 460.209517756016"/></g><g transform="translate(-398,-262) scale(1,1)"><path fill="none" stroke="#000000" d="M 556.1626748576241 451.790482243984 L 546 456 L 556.1626748576241 460.209517756016 L 556.1626748576241 451.790482243984" stroke-miterlimit="10"/></g><g transform="translate(-398,-262) scale(1,1)"><path fill="none" stroke="#000000" d="M 744 656 L 744 488 M 744 488 A 8 8 0 0 0 736 480 L 546 480" stroke-miterlimit="10"/></g><g transform="translate(-398,-262) scale(1,1)"><path fill="#000000" stroke="none" d="M 556.1626748576241 475.790482243984 L 546 480 L 556.1626748576241 484.209517756016"/></g><g transform="translate(-398,-262) scale(1,1)"><path fill="none" stroke="#000000" d="M 556.1626748576241 475.790482243984 L 546 480 L 556.1626748576241 484.209517756016 L 556.1626748576241 475.790482243984" stroke-miterlimit="10"/></g></g></svg>