<svg version="1.1" xmlns="http://www.w3.org/2000/svg" xmlns:xlink="http://www.w3.org/1999/xlink" width="404" height="1049"><defs/><g><text fill="#eeeeee" stroke="none" font-family="Arial" font-size="24px" font-style="normal" font-weight="normal" text-decoration="none" x="0" y="0">UNREGISTERED</text><text fill="#eeeeee" stroke="none" font-family="Arial" font-size="24px" font-style="normal" font-weight="normal" text-decoration="none" x="0" y="30">UNREGISTERED</text><text fill="#eeeeee" stroke="none" font-family="Arial" font-size="24px" font-style="normal" font-weight="normal" text-decoration="none" x="0" y="60">UNREGISTERED</text><text fill="#eeeeee" stroke="none" font-family="Arial" font-size="24px" font-style="normal" font-weight="normal" text-decoration="none" x="0" y="90">UNREGISTERED</text><text fill="#eeeeee" stroke="none" font-family="Arial" font-size="24px" font-style="normal" font-weight="normal" text-decoration="none" x="0" y="120">UNREGISTERED</text><text fill="#eeeeee" stroke="none" font-family="Arial" font-size="24px" font-style="normal" font-weight="normal" text-decoration="none" x="0" y="150">UNREGISTERED</text><text fill="#eeeeee" stroke="none" font-family="Arial" font-size="24px" font-style="normal" font-weight="normal" text-decoration="none" x="0" y="180">UNREGISTERED</text><text fill="#eeeeee" stroke="none" font-family="Arial" font-size="24px" font-style="normal" font-weight="normal" text-decoration="none" x="0" y="210">UNREGISTERED</text><text fill="#eeeeee" stroke="none" font-family="Arial" font-size="24px" font-style="normal" font-weight="normal" text-decoration="none" x="0" y="240">UNREGISTERED</text><text fill="#eeeeee" stroke="none" font-family="Arial" font-size="24px" font-style="normal" font-weight="normal" text-decoration="none" x="0" y="270">UNREGISTERED</text><text fill="#eeeeee" stroke="none" font-family="Arial" font-size="24px" font-style="normal" font-weight="normal" text-decoration="none" x="0" y="300">UNREGISTERED</text><text fill="#eeeeee" stroke="none" font-family="Arial" font-size="24px" font-style="normal" font-weight="normal" text-decoration="none" x="0" y="330">UNREGISTERED</text><text fill="#eeeeee" stroke="none" font-family="Arial" font-size="24px" font-style="normal" font-weight="normal" text-decoration="none" x="0" y="360">UNREGISTERED</text><text fill="#eeeeee" stroke="none" font-family="Arial" font-size="24px" font-style="normal" font-weight="normal" text-decoration="none" x="0" y="390">UNREGISTERED</text><text fill="#eeeeee" stroke="none" font-family="Arial" font-size="24px" font-style="normal" font-weight="normal" text-decoration="none" x="0" y="420">UNREGISTERED</text><text fill="#eeeeee" stroke="none" font-family="Arial" font-size="24px" font-style="normal" font-weight="normal" text-decoration="none" x="0" y="450">UNREGISTERED</text><text fill="#eeeeee" stroke="none" font-family="Arial" font-size="24px" font-style="normal" font-weight="normal" text-decoration="none" x="0" y="480">UNREGISTERED</text><text fill="#eeeeee" stroke="none" font-family="Arial" font-size="24px" font-style="normal" font-weight="normal" text-decoration="none" x="0" y="510">UNREGISTERED</text><text fill="#eeeeee" stroke="none" font-family="Arial" font-size="24px" font-style="normal" font-weight="normal" text-decoration="none" x="0" y="540">UNREGISTERED</text><text fill="#eeeeee" stroke="none" font-family="Arial" font-size="24px" font-style="normal" font-weight="normal" text-decoration="none" x="0" y="570">UNREGISTERED</text><text fill="#eeeeee" stroke="none" font-family="Arial" font-size="24px" font-style="normal" font-weight="normal" text-decoration="none" x="0" y="600">UNREGISTERED</text><text fill="#eeeeee" stroke="none" font-family="Arial" font-size="24px" font-style="normal" font-weight="normal" text-decoration="none" x="0" y="630">UNREGISTERED</text><text fill="#eeeeee" stroke="none" font-family="Arial" font-size="24px" font-style="normal" font-weight="normal" text-decoration="none" x="0" y="660">UNREGISTERED</text><text fill="#eeeeee" stroke="none" font-family="Arial" font-size="24px" font-style="normal" font-weight="normal" text-decoration="none" x="0" y="690">UNREGISTERED</text><text fill="#eeeeee" stroke="none" font-family="Arial" font-size="24px" font-style="normal" font-weight="normal" text-decoration="none" x="0" y="720">UNREGISTERED</text><text fill="#eeeeee" stroke="none" font-family="Arial" font-size="24px" font-style="normal" font-weight="normal" text-decoration="none" x="0" y="750">UNREGISTERED</text><text fill="#eeeeee" stroke="none" font-family="Arial" font-size="24px" font-style="normal" font-weight="normal" text-decoration="none" x="0" y="780">UNREGISTERED</text><text fill="#eeeeee" stroke="none" font-family="Arial" font-size="24px" font-style="normal" font-weight="normal" text-decoration="none" x="0" y="810">UNREGISTERED</text><text fill="#eeeeee" stroke="none" font-family="Arial" font-size="24px" font-style="normal" font-weight="normal" text-decoration="none" x="0" y="840">UNREGISTERED</text><text fill="#eeeeee" stroke="none" font-family="Arial" font-size="24px" font-style="normal" font-weight="normal" text-decoration="none" x="0" y="870">UNREGISTERED</text><text fill="#eeeeee" stroke="none" font-family="Arial" font-size="24px" font-style="normal" font-weight="normal" text-decoration="none" x="0" y="900">UNREGISTERED</text><text fill="#eeeeee" stroke="none" font-family="Arial" font-size="24px" font-style="normal" font-weight="normal" text-decoration="none" x="0" y="930">UNREGISTERED</text><text fill="#eeeeee" stroke="none" font-family="Arial" font-size="24px" font-style="normal" font-weight="normal" text-decoration="none" x="0" y="960">UNREGISTERED</text><text fill="#eeeeee" stroke="none" font-family="Arial" font-size="24px" font-style="normal" font-weight="normal" text-decoration="none" x="0" y="990">UNREGISTERED</text><text fill="#eeeeee" stroke="none" font-family="Arial" font-size="24px" font-style="normal" font-weight="normal" text-decoration="none" x="0" y="1020">UNREGISTERED</text><text fill="#eeeeee" stroke="none" font-family="Arial" font-size="24px" font-style="normal" font-weight="normal" text-decoration="none" x="200" y="0">UNREGISTERED</text><text fill="#eeeeee" stroke="none" font-family="Arial" font-size="24px" font-style="normal" font-weight="normal" text-decoration="none" x="200" y="30">UNREGISTERED</text><text fill="#eeeeee" stroke="none" font-family="Arial" font-size="24px" font-style="normal" font-weight="normal" text-decoration="none" x="200" y="60">UNREGISTERED</text><text fill="#eeeeee" stroke="none" font-family="Arial" font-size="24px" font-style="normal" font-weight="normal" text-decoration="none" x="200" y="90">UNREGISTERED</text><text fill="#eeeeee" stroke="none" font-family="Arial" font-size="24px" font-style="normal" font-weight="normal" text-decoration="none" x="200" y="120">UNREGISTERED</text><text fill="#eeeeee" stroke="none" font-family="Arial" font-size="24px" font-style="normal" font-weight="normal" text-decoration="none" x="200" y="150">UNREGISTERED</text><text fill="#eeeeee" stroke="none" font-family="Arial" font-size="24px" font-style="normal" font-weight="normal" text-decoration="none" x="200" y="180">UNREGISTERED</text><text fill="#eeeeee" stroke="none" font-family="Arial" font-size="24px" font-style="normal" font-weight="normal" text-decoration="none" x="200" y="210">UNREGISTERED</text><text fill="#eeeeee" stroke="none" font-family="Arial" font-size="24px" font-style="normal" font-weight="normal" text-decoration="none" x="200" y="240">UNREGISTERED</text><text fill="#eeeeee" stroke="none" font-family="Arial" font-size="24px" font-style="normal" font-weight="normal" text-decoration="none" x="200" y="270">UNREGISTERED</text><text fill="#eeeeee" stroke="none" font-family="Arial" font-size="24px" font-style="normal" font-weight="normal" text-decoration="none" x="200" y="300">UNREGISTERED</text><text fill="#eeeeee" stroke="none" font-family="Arial" font-size="24px" font-style="normal" font-weight="normal" text-decoration="none" x="200" y="330">UNREGISTERED</text><text fill="#eeeeee" stroke="none" font-family="Arial" font-size="24px" font-style="normal" font-weight="normal" text-decoration="none" x="200" y="360">UNREGISTERED</text><text fill="#eeeeee" stroke="none" font-family="Arial" font-size="24px" font-style="normal" font-weight="normal" text-decoration="none" x="200" y="390">UNREGISTERED</text><text fill="#eeeeee" stroke="none" font-family="Arial" font-size="24px" font-style="normal" font-weight="normal" text-decoration="none" x="200" y="420">UNREGISTERED</text><text fill="#eeeeee" stroke="none" font-family="Arial" font-size="24px" font-style="normal" font-weight="normal" text-decoration="none" x="200" y="450">UNREGISTERED</text><text fill="#eeeeee" stroke="none" font-family="Arial" font-size="24px" font-style="normal" font-weight="normal" text-decoration="none" x="200" y="480">UNREGISTERED</text><text fill="#eeeeee" stroke="none" font-family="Arial" font-size="24px" font-style="normal" font-weight="normal" text-decoration="none" x="200" y="510">UNREGISTERED</text><text fill="#eeeeee" stroke="none" font-family="Arial" font-size="24px" font-style="normal" font-weight="normal" text-decoration="none" x="200" y="540">UNREGISTERED</text><text fill="#eeeeee" stroke="none" font-family="Arial" font-size="24px" font-style="normal" font-weight="normal" text-decoration="none" x="200" y="570">UNREGISTERED</text><text fill="#eeeeee" stroke="none" font-family="Arial" font-size="24px" font-style="normal" font-weight="normal" text-decoration="none" x="200" y="600">UNREGISTERED</text><text fill="#eeeeee" stroke="none" font-family="Arial" font-size="24px" font-style="normal" font-weight="normal" text-decoration="none" x="200" y="630">UNREGISTERED</text><text fill="#eeeeee" stroke="none" font-family="Arial" font-size="24px" font-style="normal" font-weight="normal" text-decoration="none" x="200" y="660">UNREGISTERED</text><text fill="#eeeeee" stroke="none" font-family="Arial" font-size="24px" font-style="normal" font-weight="normal" text-decoration="none" x="200" y="690">UNREGISTERED</text><text fill="#eeeeee" stroke="none" font-family="Arial" font-size="24px" font-style="normal" font-weight="normal" text-decoration="none" x="200" y="720">UNREGISTERED</text><text fill="#eeeeee" stroke="none" font-family="Arial" font-size="24px" font-style="normal" font-weight="normal" text-decoration="none" x="200" y="750">UNREGISTERED</text><text fill="#eeeeee" stroke="none" font-family="Arial" font-size="24px" font-style="normal" font-weight="normal" text-decoration="none" x="200" y="780">UNREGISTERED</text><text fill="#eeeeee" stroke="none" font-family="Arial" font-size="24px" font-style="normal" font-weight="normal" text-decoration="none" x="200" y="810">UNREGISTERED</text><text fill="#eeeeee" stroke="none" font-family="Arial" font-size="24px" font-style="normal" font-weight="normal" text-decoration="none" x="200" y="840">UNREGISTERED</text><text fill="#eeeeee" stroke="none" font-family="Arial" font-size="24px" font-style="normal" font-weight="normal" text-decoration="none" x="200" y="870">UNREGISTERED</text><text fill="#eeeeee" stroke="none" font-family="Arial" font-size="24px" font-style="normal" font-weight="normal" text-decoration="none" x="200" y="900">UNREGISTERED</text><text fill="#eeeeee" stroke="none" font-family="Arial" font-size="24px" font-style="normal" font-weight="normal" text-decoration="none" x="200" y="930">UNREGISTERED</text><text fill="#eeeeee" stroke="none" font-family="Arial" font-size="24px" font-style="normal" font-weight="normal" text-decoration="none" x="200" y="960">UNREGISTERED</text><text fill="#eeeeee" stroke="none" font-family="Arial" font-size="24px" font-style="normal" font-weight="normal" text-decoration="none" x="200" y="990">UNREGISTERED</text><text fill="#eeeeee" stroke="none" font-family="Arial" font-size="24px" font-style="normal" font-weight="normal" text-decoration="none" x="200" y="1020">UNREGISTERED</text><text fill="#eeeeee" stroke="none" font-family="Arial" font-size="24px" font-style="normal" font-weight="normal" text-decoration="none" x="400" y="0">UNREGISTERED</text><text fill="#eeeeee" stroke="none" font-family="Arial" font-size="24px" font-style="normal" font-weight="normal" text-decoration="none" x="400" y="30">UNREGISTERED</text><text fill="#eeeeee" stroke="none" font-family="Arial" font-size="24px" font-style="normal" font-weight="normal" text-decoration="none" x="400" y="60">UNREGISTERED</text><text fill="#eeeeee" stroke="none" font-family="Arial" font-size="24px" font-style="normal" font-weight="normal" text-decoration="none" x="400" y="90">UNREGISTERED</text><text fill="#eeeeee" stroke="none" font-family="Arial" font-size="24px" font-style="normal" font-weight="normal" text-decoration="none" x="400" y="120">UNREGISTERED</text><text fill="#eeeeee" stroke="none" font-family="Arial" font-size="24px" font-style="normal" font-weight="normal" text-decoration="none" x="400" y="150">UNREGISTERED</text><text fill="#eeeeee" stroke="none" font-family="Arial" font-size="24px" font-style="normal" font-weight="normal" text-decoration="none" x="400" y="180">UNREGISTERED</text><text fill="#eeeeee" stroke="none" font-family="Arial" font-size="24px" font-style="normal" font-weight="normal" text-decoration="none" x="400" y="210">UNREGISTERED</text><text fill="#eeeeee" stroke="none" font-family="Arial" font-size="24px" font-style="normal" font-weight="normal" text-decoration="none" x="400" y="240">UNREGISTERED</text><text fill="#eeeeee" stroke="none" font-family="Arial" font-size="24px" font-style="normal" font-weight="normal" text-decoration="none" x="400" y="270">UNREGISTERED</text><text fill="#eeeeee" stroke="none" font-family="Arial" font-size="24px" font-style="normal" font-weight="normal" text-decoration="none" x="400" y="300">UNREGISTERED</text><text fill="#eeeeee" stroke="none" font-family="Arial" font-size="24px" font-style="normal" font-weight="normal" text-decoration="none" x="400" y="330">UNREGISTERED</text><text fill="#eeeeee" stroke="none" font-family="Arial" font-size="24px" font-style="normal" font-weight="normal" text-decoration="none" x="400" y="360">UNREGISTERED</text><text fill="#eeeeee" stroke="none" font-family="Arial" font-size="24px" font-style="normal" font-weight="normal" text-decoration="none" x="400" y="390">UNREGISTERED</text><text fill="#eeeeee" stroke="none" font-family="Arial" font-size="24px" font-style="normal" font-weight="normal" text-decoration="none" x="400" y="420">UNREGISTERED</text><text fill="#eeeeee" stroke="none" font-family="Arial" font-size="24px" font-style="normal" font-weight="normal" text-decoration="none" x="400" y="450">UNREGISTERED</text><text fill="#eeeeee" stroke="none" font-family="Arial" font-size="24px" font-style="normal" font-weight="normal" text-decoration="none" x="400" y="480">UNREGISTERED</text><text fill="#eeeeee" stroke="none" font-family="Arial" font-size="24px" font-style="normal" font-weight="normal" text-decoration="none" x="400" y="510">UNREGISTERED</text><text fill="#eeeeee" stroke="none" font-family="Arial" font-size="24px" font-style="normal" font-weight="normal" text-decoration="none" x="400" y="540">UNREGISTERED</text><text fill="#eeeeee" stroke="none" font-family="Arial" font-size="24px" font-style="normal" font-weight="normal" text-decoration="none" x="400" y="570">UNREGISTERED</text><text fill="#eeeeee" stroke="none" font-family="Arial" font-size="24px" font-style="normal" font-weight="normal" text-decoration="none" x="400" y="600">UNREGISTERED</text><text fill="#eeeeee" stroke="none" font-family="Arial" font-size="24px" font-style="normal" font-weight="normal" text-decoration="none" x="400" y="630">UNREGISTERED</text><text fill="#eeeeee" stroke="none" font-family="Arial" font-size="24px" font-style="normal" font-weight="normal" text-decoration="none" x="400" y="660">UNREGISTERED</text><text fill="#eeeeee" stroke="none" font-family="Arial" font-size="24px" font-style="normal" font-weight="normal" text-decoration="none" x="400" y="690">UNREGISTERED</text><text fill="#eeeeee" stroke="none" font-family="Arial" font-size="24px" font-style="normal" font-weight="normal" text-decoration="none" x="400" y="720">UNREGISTERED</text><text fill="#eeeeee" stroke="none" font-family="Arial" font-size="24px" font-style="normal" font-weight="normal" text-decoration="none" x="400" y="750">UNREGISTERED</text><text fill="#eeeeee" stroke="none" font-family="Arial" font-size="24px" font-style="normal" font-weight="normal" text-decoration="none" x="400" y="780">UNREGISTERED</text><text fill="#eeeeee" stroke="none" font-family="Arial" font-size="24px" font-style="normal" font-weight="normal" text-decoration="none" x="400" y="810">UNREGISTERED</text><text fill="#eeeeee" stroke="none" font-family="Arial" font-size="24px" font-style="normal" font-weight="normal" text-decoration="none" x="400" y="840">UNREGISTERED</text><text fill="#eeeeee" stroke="none" font-family="Arial" font-size="24px" font-style="normal" font-weight="normal" text-decoration="none" x="400" y="870">UNREGISTERED</text><text fill="#eeeeee" stroke="none" font-family="Arial" font-size="24px" font-style="normal" font-weight="normal" text-decoration="none" x="400" y="900">UNREGISTERED</text><text fill="#eeeeee" stroke="none" font-family="Arial" font-size="24px" font-style="normal" font-weight="normal" text-decoration="none" x="400" y="930">UNREGISTERED</text><text fill="#eeeeee" stroke="none" font-family="Arial" font-size="24px" font-style="normal" font-weight="normal" text-decoration="none" x="400" y="960">UNREGISTERED</text><text fill="#eeeeee" stroke="none" font-family="Arial" font-size="24px" font-style="normal" font-weight="normal" text-decoration="none" x="400" y="990">UNREGISTERED</text><text fill="#eeeeee" stroke="none" font-family="Arial" font-size="24px" font-style="normal" font-weight="normal" text-decoration="none" x="400" y="1020">UNREGISTERED</text><g transform="translate(-374,-414) scale(1,1)"><rect fill="#ffffff" stroke="none" x="400" y="424" width="136" height="45"/></g><g transform="translate(-374,-414) scale(1,1)"><path fill="none" stroke="#000000" d="M 400 424 L 536 424 L 536 469 L 400 469 L 400 424 Z Z" stroke-miterlimit="10"/></g><g transform="translate(-374,-414) scale(1,1)"><g><path fill="none" stroke="none"/><text fill="#000000" stroke="none" font-family="Arial" font-size="13px" font-style="normal" font-weight="normal" text-decoration="none" x="422.109619140625" y="445">User opens app</text><text fill="#000000" stroke="none" font-family="Arial" font-size="13px" font-style="normal" font-weight="normal" text-decoration="none" x="432.5927734375" y="458">after a week</text></g></g><g transform="translate(-374,-414) scale(1,1)"><rect fill="#ffffff" stroke="none" x="392" y="544" width="152" height="84"/></g><g transform="translate(-374,-414) scale(1,1)"><path fill="none" stroke="#000000" d="M 392 544 L 544 544 L 544 628 L 392 628 L 392 544 Z Z" stroke-miterlimit="10"/></g><g transform="translate(-374,-414) scale(1,1)"><g><path fill="none" stroke="none"/><text fill="#000000" stroke="none" font-family="Arial" font-size="13px" font-style="normal" font-weight="normal" text-decoration="none" x="410.1982421875" y="565">Check if usage from</text><text fill="#000000" stroke="none" font-family="Arial" font-size="13px" font-style="normal" font-weight="normal" text-decoration="none" x="426.451416015625" y="578">previous week</text><text fill="#000000" stroke="none" font-family="Arial" font-size="13px" font-style="normal" font-weight="normal" text-decoration="none" x="409.833251953125" y="591">compared to current</text><text fill="#000000" stroke="none" font-family="Arial" font-size="13px" font-style="normal" font-weight="normal" text-decoration="none" x="419.21826171875" y="604">week has seen a</text><text fill="#000000" stroke="none" font-family="Arial" font-size="13px" font-style="normal" font-weight="normal" text-decoration="none" x="410.550537109375" y="617">substantial increase</text></g></g><g transform="translate(-374,-414) scale(1,1)"><path fill="#ffffff" stroke="none" d="M 392 764 L 468.208984375 688 L 544.41796875 764 L 468.208984375 840 L 392 764"/></g><g transform="translate(-374,-414) scale(1,1)"><path fill="none" stroke="#000000" d="M 392 764 L 468.208984375 688 L 544.41796875 764 L 468.208984375 840 L 392 764 L 392 764" stroke-miterlimit="10"/></g><g transform="translate(-374,-414) scale(1,1)"><g><path fill="none" stroke="none"/><text fill="#000000" stroke="none" font-family="Arial" font-size="13px" font-style="normal" font-weight="normal" text-decoration="none" x="437.134033203125" y="743">Has usage</text><text fill="#000000" stroke="none" font-family="Arial" font-size="13px" font-style="normal" font-weight="normal" text-decoration="none" x="438.587646484375" y="756">for current</text><text fill="#000000" stroke="none" font-family="Arial" font-size="13px" font-style="normal" font-weight="normal" text-decoration="none" x="453.034912109375" y="769">week</text><text fill="#000000" stroke="none" font-family="Arial" font-size="13px" font-style="normal" font-weight="normal" text-decoration="none" x="436.4072265625" y="782">passed the</text><text fill="#000000" stroke="none" font-family="Arial" font-size="13px" font-style="normal" font-weight="normal" text-decoration="none" x="437.8544921875" y="795">threshold?</text></g></g><g transform="translate(-374,-414) scale(1,1)"><path fill="#ffffff" stroke="none" d="M 671 744 L 745 744 Q 768 744 768 767 L 768 766 Q 768 789 745 789 L 671 789 Q 648 789 648 766 L 648 767 Q 648 744 671 744 Z"/></g><g transform="translate(-374,-414) scale(1,1)"><path fill="none" stroke="#000000" d="M 671 744 L 745 744 Q 768 744 768 767 L 768 766 Q 768 789 745 789 L 671 789 Q 648 789 648 766 L 648 767 Q 648 744 671 744 Z" stroke-miterlimit="10"/></g><g transform="translate(-374,-414) scale(1,1)"><g><path fill="none" stroke="none"/><text fill="#000000" stroke="none" font-family="Arial" font-size="13px" font-style="normal" font-weight="normal" text-decoration="none" x="658.50732421875" y="765">Display message</text><text fill="#000000" stroke="none" font-family="Arial" font-size="13px" font-style="normal" font-weight="normal" text-decoration="none" x="661.02099609375" y="778">regarding usage</text></g></g><g transform="translate(-374,-414) scale(1,1)"><rect fill="#ffffff" stroke="none" x="392" y="888" width="160" height="58"/></g><g transform="translate(-374,-414) scale(1,1)"><path fill="none" stroke="#000000" d="M 392 888 L 552 888 L 552 946 L 392 946 L 392 888 Z Z" stroke-miterlimit="10"/></g><g transform="translate(-374,-414) scale(1,1)"><g><path fill="none" stroke="none"/><text fill="#000000" stroke="none" font-family="Arial" font-size="13px" font-style="normal" font-weight="normal" text-decoration="none" x="404.438720703125" y="909">Display message to the</text><text fill="#000000" stroke="none" font-family="Arial" font-size="13px" font-style="normal" font-weight="normal" text-decoration="none" x="430.08642578125" y="922">user regarding</text><text fill="#000000" stroke="none" font-family="Arial" font-size="13px" font-style="normal" font-weight="normal" text-decoration="none" x="424.300537109375" y="935">increased usage</text></g></g><g transform="translate(-374,-414) scale(1,1)"><rect fill="#ffffff" stroke="none" x="416" y="992" width="104" height="58"/></g><g transform="translate(-374,-414) scale(1,1)"><path fill="none" stroke="#000000" d="M 416 992 L 520 992 L 520 1050 L 416 1050 L 416 992 Z Z" stroke-miterlimit="10"/></g><g transform="translate(-374,-414) scale(1,1)"><g><path fill="none" stroke="none"/><text fill="#000000" stroke="none" font-family="Arial" font-size="13px" font-style="normal" font-weight="normal" text-decoration="none" x="435.4873046875" y="1013">Ask user to</text><text fill="#000000" stroke="none" font-family="Arial" font-size="13px" font-style="normal" font-weight="normal" text-decoration="none" x="434.03369140625" y="1026">redefine set</text><text fill="#000000" stroke="none" font-family="Arial" font-size="13px" font-style="normal" font-weight="normal" text-decoration="none" x="455.7109375" y="1039">goal</text></g></g><g transform="translate(-374,-414) scale(1,1)"><path fill="#ffffff" stroke="none" d="M 431 1408 L 513 1408 Q 536 1408 536 1431 L 536 1430 Q 536 1453 513 1453 L 431 1453 Q 408 1453 408 1430 L 408 1431 Q 408 1408 431 1408 Z"/></g><g transform="translate(-374,-414) scale(1,1)"><path fill="none" stroke="#000000" d="M 431 1408 L 513 1408 Q 536 1408 536 1431 L 536 1430 Q 536 1453 513 1453 L 431 1453 Q 408 1453 408 1430 L 408 1431 Q 408 1408 431 1408 Z" stroke-miterlimit="10"/></g><g transform="translate(-374,-414) scale(1,1)"><g><path fill="none" stroke="none"/><text fill="#000000" stroke="none" font-family="Arial" font-size="13px" font-style="normal" font-weight="normal" text-decoration="none" x="429.369140625" y="1429">Return to main</text><text fill="#000000" stroke="none" font-family="Arial" font-size="13px" font-style="normal" font-weight="normal" text-decoration="none" x="452.490478515625" y="1440.5">screen</text></g></g><g transform="translate(-374,-414) scale(1,1)"><rect fill="#ffffff" stroke="none" x="384" y="1104" width="184" height="58"/></g><g transform="translate(-374,-414) scale(1,1)"><path fill="none" stroke="#000000" d="M 384 1104 L 568 1104 L 568 1162 L 384 1162 L 384 1104 Z Z" stroke-miterlimit="10"/></g><g transform="translate(-374,-414) scale(1,1)"><g><path fill="none" stroke="none"/><text fill="#000000" stroke="none" font-family="Arial" font-size="13px" font-style="normal" font-weight="normal" text-decoration="none" x="397.60009765625" y="1125">Ask user to evaluate if their</text><text fill="#000000" stroke="none" font-family="Arial" font-size="13px" font-style="normal" font-weight="normal" text-decoration="none" x="399.396484375" y="1138">usage is getting in the way</text><text fill="#000000" stroke="none" font-family="Arial" font-size="13px" font-style="normal" font-weight="normal" text-decoration="none" x="442.03369140625" y="1151">of their goal</text></g></g><g transform="translate(-374,-414) scale(1,1)"><path fill="none" stroke="#000000" d="M 468 469 L 468 544" stroke-miterlimit="10"/></g><g transform="translate(-374,-414) scale(1,1)"><path fill="#000000" stroke="none" d="M 463.790482243984 533.8373251423759 L 468 544 L 472.209517756016 533.8373251423759"/></g><g transform="translate(-374,-414) scale(1,1)"><path fill="none" stroke="#000000" d="M 463.790482243984 533.8373251423759 L 468 544 L 472.209517756016 533.8373251423759 L 463.790482243984 533.8373251423759" stroke-miterlimit="10"/></g><g transform="translate(-374,-414) scale(1,1)"><path fill="none" stroke="#000000" d="M 468 628 L 468 688" stroke-miterlimit="10"/></g><g transform="translate(-374,-414) scale(1,1)"><path fill="#000000" stroke="none" d="M 463.790482243984 677.8373251423759 L 468 688 L 472.209517756016 677.8373251423759"/></g><g transform="translate(-374,-414) scale(1,1)"><path fill="none" stroke="#000000" d="M 463.790482243984 677.8373251423759 L 468 688 L 472.209517756016 677.8373251423759 L 463.790482243984 677.8373251423759" stroke-miterlimit="10"/></g><g transform="translate(-374,-414) scale(1,1)"><path fill="none" stroke="#000000" d="M 544 770 L 648 770" stroke-miterlimit="10"/></g><g transform="translate(-374,-414) scale(1,1)"><path fill="#000000" stroke="none" d="M 637.8373251423759 774.209517756016 L 648 770 L 637.8373251423758 765.790482243984"/></g><g transform="translate(-374,-414) scale(1,1)"><path fill="none" stroke="#000000" d="M 637.8373251423759 774.209517756016 L 648 770 L 637.8373251423758 765.790482243984 L 637.8373251423759 774.209517756016" stroke-miterlimit="10"/></g><g transform="translate(-374,-414) scale(1,1)"><g><path fill="none" stroke="none"/><text fill="#000000" stroke="none" font-family="Arial" font-size="13px" font-style="normal" font-weight="normal" text-decoration="none" x="587.5" y="760">No</text></g></g><g transform="translate(-374,-414) scale(1,1)"><path fill="none" stroke="#000000" d="M 470 840 L 470 888" stroke-miterlimit="10"/></g><g transform="translate(-374,-414) scale(1,1)"><path fill="#000000" stroke="none" d="M 465.790482243984 877.8373251423759 L 470 888 L 474.209517756016 877.8373251423759"/></g><g transform="translate(-374,-414) scale(1,1)"><path fill="none" stroke="#000000" d="M 465.790482243984 877.8373251423759 L 470 888 L 474.209517756016 877.8373251423759 L 465.790482243984 877.8373251423759" stroke-miterlimit="10"/></g><g transform="translate(-374,-414) scale(1,1)"><g><path fill="none" stroke="none"/><text fill="#000000" stroke="none" font-family="Arial" font-size="13px" font-style="normal" font-weight="normal" text-decoration="none" x="473.5" y="868">Yes</text></g></g><g transform="translate(-374,-414) scale(1,1)"><path fill="none" stroke="#000000" d="M 464 946 L 464 992" stroke-miterlimit="10"/></g><g transform="translate(-374,-414) scale(1,1)"><path fill="#000000" stroke="none" d="M 459.790482243984 981.8373251423759 L 464 992 L 468.209517756016 981.8373251423759"/></g><g transform="translate(-374,-414) scale(1,1)"><path fill="none" stroke="#000000" d="M 459.790482243984 981.8373251423759 L 464 992 L 468.209517756016 981.8373251423759 L 459.790482243984 981.8373251423759" stroke-miterlimit="10"/></g><g transform="translate(-374,-414) scale(1,1)"><path fill="none" stroke="#000000" d="M 464 1050 L 464 1104" stroke-miterlimit="10"/></g><g transform="translate(-374,-414) scale(1,1)"><path fill="#000000" stroke="none" d="M 459.790482243984 1093.837325142376 L 464 1104 L 468.209517756016 1093.837325142376"/></g><g transform="translate(-374,-414) scale(1,1)"><path fill="none" stroke="#000000" d="M 459.790482243984 1093.837325142376 L 464 1104 L 468.209517756016 1093.837325142376 L 459.790482243984 1093.837325142376" stroke-miterlimit="10"/></g><g transform="translate(-374,-414) scale(1,1)"><rect fill="#ffffff" stroke="none" x="408" y="1216" width="129.8798828125" height="45"/></g><g transform="translate(-374,-414) scale(1,1)"><path fill="none" stroke="#000000" d="M 408 1216 L 537.8798828125 1216 L 537.8798828125 1261 L 408 1261 L 408 1216 Z Z" stroke-miterlimit="10"/></g><g transform="translate(-374,-414) scale(1,1)"><g><path fill="none" stroke="none"/><text fill="#000000" stroke="none" font-family="Arial" font-size="13px" font-style="normal" font-weight="normal" text-decoration="none" x="430.312255859375" y="1237">Randomly pick</text><text fill="#000000" stroke="none" font-family="Arial" font-size="13px" font-style="normal" font-weight="normal" text-decoration="none" x="419.8291015625" y="1250">activity suggestion</text></g></g><g transform="translate(-374,-414) scale(1,1)"><rect fill="#ffffff" stroke="none" x="416" y="1296" width="113.18994140625" height="48"/></g><g transform="translate(-374,-414) scale(1,1)"><path fill="none" stroke="#000000" d="M 416 1296 L 529.18994140625 1296 L 529.18994140625 1344 L 416 1344 L 416 1296 Z Z" stroke-miterlimit="10"/></g><g transform="translate(-374,-414) scale(1,1)"><g><path fill="none" stroke="none"/><text fill="#000000" stroke="none" font-family="Arial" font-size="13px" font-style="normal" font-weight="normal" text-decoration="none" x="430.687744140625" y="1317">Display picked</text><text fill="#000000" stroke="none" font-family="Arial" font-size="13px" font-style="normal" font-weight="normal" text-decoration="none" x="431.052734375" y="1330">activity to user</text></g></g><g transform="translate(-374,-414) scale(1,1)"><path fill="none" stroke="#000000" d="M 475 1162 L 475 1216" stroke-miterlimit="10"/></g><g transform="translate(-374,-414) scale(1,1)"><path fill="#000000" stroke="none" d="M 470.790482243984 1205.837325142376 L 475 1216 L 479.209517756016 1205.837325142376"/></g><g transform="translate(-374,-414) scale(1,1)"><path fill="none" stroke="#000000" d="M 470.790482243984 1205.837325142376 L 475 1216 L 479.209517756016 1205.837325142376 L 470.790482243984 1205.837325142376" stroke-miterlimit="10"/></g><g transform="translate(-374,-414) scale(1,1)"><path fill="none" stroke="#000000" d="M 472 1261 L 472 1296" stroke-miterlimit="10"/></g><g transform="translate(-374,-414) scale(1,1)"><path fill="#000000" stroke="none" d="M 467.790482243984 1285.837325142376 L 472 1296 L 476.209517756016 1285.837325142376"/></g><g transform="translate(-374,-414) scale(1,1)"><path fill="none" stroke="#000000" d="M 467.790482243984 1285.837325142376 L 472 1296 L 476.209517756016 1285.837325142376 L 467.790482243984 1285.837325142376" stroke-miterlimit="10"/></g><g transform="translate(-374,-414) scale(1,1)"><path fill="none" stroke="#000000" d="M 472 1344 L 472 1408" stroke-miterlimit="10"/></g><g transform="translate(-374,-414) scale(1,1)"><path fill="#000000" stroke="none" d="M 467.790482243984 1397.837325142376 L 472 1408 L 476.209517756016 1397.837325142376"/></g><g transform="translate(-374,-414) scale(1,1)"><path fill="none" stroke="#000000" d="M 467.790482243984 1397.837325142376 L 472 1408 L 476.209517756016 1397.837325142376 L 467.790482243984 1397.837325142376" stroke-miterlimit="10"/></g></g></svg>