<svg version="1.1" xmlns="http://www.w3.org/2000/svg" xmlns:xlink="http://www.w3.org/1999/xlink" width="512.05712890625" height="580"><defs/><g><text fill="#eeeeee" stroke="none" font-family="Arial" font-size="24px" font-style="normal" font-weight="normal" text-decoration="none" x="0" y="0">UNREGISTERED</text><text fill="#eeeeee" stroke="none" font-family="Arial" font-size="24px" font-style="normal" font-weight="normal" text-decoration="none" x="0" y="30">UNREGISTERED</text><text fill="#eeeeee" stroke="none" font-family="Arial" font-size="24px" font-style="normal" font-weight="normal" text-decoration="none" x="0" y="60">UNREGISTERED</text><text fill="#eeeeee" stroke="none" font-family="Arial" font-size="24px" font-style="normal" font-weight="normal" text-decoration="none" x="0" y="90">UNREGISTERED</text><text fill="#eeeeee" stroke="none" font-family="Arial" font-size="24px" font-style="normal" font-weight="normal" text-decoration="none" x="0" y="120">UNREGISTERED</text><text fill="#eeeeee" stroke="none" font-family="Arial" font-size="24px" font-style="normal" font-weight="normal" text-decoration="none" x="0" y="150">UNREGISTERED</text><text fill="#eeeeee" stroke="none" font-family="Arial" font-size="24px" font-style="normal" font-weight="normal" text-decoration="none" x="0" y="180">UNREGISTERED</text><text fill="#eeeeee" stroke="none" font-family="Arial" font-size="24px" font-style="normal" font-weight="normal" text-decoration="none" x="0" y="210">UNREGISTERED</text><text fill="#eeeeee" stroke="none" font-family="Arial" font-size="24px" font-style="normal" font-weight="normal" text-decoration="none" x="0" y="240">UNREGISTERED</text><text fill="#eeeeee" stroke="none" font-family="Arial" font-size="24px" font-style="normal" font-weight="normal" text-decoration="none" x="0" y="270">UNREGISTERED</text><text fill="#eeeeee" stroke="none" font-family="Arial" font-size="24px" font-style="normal" font-weight="normal" text-decoration="none" x="0" y="300">UNREGISTERED</text><text fill="#eeeeee" stroke="none" font-family="Arial" font-size="24px" font-style="normal" font-weight="normal" text-decoration="none" x="0" y="330">UNREGISTERED</text><text fill="#eeeeee" stroke="none" font-family="Arial" font-size="24px" font-style="normal" font-weight="normal" text-decoration="none" x="0" y="360">UNREGISTERED</text><text fill="#eeeeee" stroke="none" font-family="Arial" font-size="24px" font-style="normal" font-weight="normal" text-decoration="none" x="0" y="390">UNREGISTERED</text><text fill="#eeeeee" stroke="none" font-family="Arial" font-size="24px" font-style="normal" font-weight="normal" text-decoration="none" x="0" y="420">UNREGISTERED</text><text fill="#eeeeee" stroke="none" font-family="Arial" font-size="24px" font-style="normal" font-weight="normal" text-decoration="none" x="0" y="450">UNREGISTERED</text><text fill="#eeeeee" stroke="none" font-family="Arial" font-size="24px" font-style="normal" font-weight="normal" text-decoration="none" x="0" y="480">UNREGISTERED</text><text fill="#eeeeee" stroke="none" font-family="Arial" font-size="24px" font-style="normal" font-weight="normal" text-decoration="none" x="0" y="510">UNREGISTERED</text><text fill="#eeeeee" stroke="none" font-family="Arial" font-size="24px" font-style="normal" font-weight="normal" text-decoration="none" x="0" y="540">UNREGISTERED</text><text fill="#eeeeee" stroke="none" font-family="Arial" font-size="24px" font-style="normal" font-weight="normal" text-decoration="none" x="0" y="570">UNREGISTERED</text><text fill="#eeeeee" stroke="none" font-family="Arial" font-size="24px" font-style="normal" font-weight="normal" text-decoration="none" x="200" y="0">UNREGISTERED</text><text fill="#eeeeee" stroke="none" font-family="Arial" font-size="24px" font-style="normal" font-weight="normal" text-decoration="none" x="200" y="30">UNREGISTERED</text><text fill="#eeeeee" stroke="none" font-family="Arial" font-size="24px" font-style="normal" font-weight="normal" text-decoration="none" x="200" y="60">UNREGISTERED</text><text fill="#eeeeee" stroke="none" font-family="Arial" font-size="24px" font-style="normal" font-weight="normal" text-decoration="none" x="200" y="90">UNREGISTERED</text><text fill="#eeeeee" stroke="none" font-family="Arial" font-size="24px" font-style="normal" font-weight="normal" text-decoration="none" x="200" y="120">UNREGISTERED</text><text fill="#eeeeee" stroke="none" font-family="Arial" font-size="24px" font-style="normal" font-weight="normal" text-decoration="none" x="200" y="150">UNREGISTERED</text><text fill="#eeeeee" stroke="none" font-family="Arial" font-size="24px" font-style="normal" font-weight="normal" text-decoration="none" x="200" y="180">UNREGISTERED</text><text fill="#eeeeee" stroke="none" font-family="Arial" font-size="24px" font-style="normal" font-weight="normal" text-decoration="none" x="200" y="210">UNREGISTERED</text><text fill="#eeeeee" stroke="none" font-family="Arial" font-size="24px" font-style="normal" font-weight="normal" text-decoration="none" x="200" y="240">UNREGISTERED</text><text fill="#eeeeee" stroke="none" font-family="Arial" font-size="24px" font-style="normal" font-weight="normal" text-decoration="none" x="200" y="270">UNREGISTERED</text><text fill="#eeeeee" stroke="none" font-family="Arial" font-size="24px" font-style="normal" font-weight="normal" text-decoration="none" x="200" y="300">UNREGISTERED</text><text fill="#eeeeee" stroke="none" font-family="Arial" font-size="24px" font-style="normal" font-weight="normal" text-decoration="none" x="200" y="330">UNREGISTERED</text><text fill="#eeeeee" stroke="none" font-family="Arial" font-size="24px" font-style="normal" font-weight="normal" text-decoration="none" x="200" y="360">UNREGISTERED</text><text fill="#eeeeee" stroke="none" font-family="Arial" font-size="24px" font-style="normal" font-weight="normal" text-decoration="none" x="200" y="390">UNREGISTERED</text><text fill="#eeeeee" stroke="none" font-family="Arial" font-size="24px" font-style="normal" font-weight="normal" text-decoration="none" x="200" y="420">UNREGISTERED</text><text fill="#eeeeee" stroke="none" font-family="Arial" font-size="24px" font-style="normal" font-weight="normal" text-decoration="none" x="200" y="450">UNREGISTERED</text><text fill="#eeeeee" stroke="none" font-family="Arial" font-size="24px" font-style="normal" font-weight="normal" text-decoration="none" x="200" y="480">UNREGISTERED</text><text fill="#eeeeee" stroke="none" font-family="Arial" font-size="24px" font-style="normal" font-weight="normal" text-decoration="none" x="200" y="510">UNREGISTERED</text><text fill="#eeeeee" stroke="none" font-family="Arial" font-size="24px" font-style="normal" font-weight="normal" text-decoration="none" x="200" y="540">UNREGISTERED</text><text fill="#eeeeee" stroke="none" font-family="Arial" font-size="24px" font-style="normal" font-weight="normal" text-decoration="none" x="200" y="570">UNREGISTERED</text><text fill="#eeeeee" stroke="none" font-family="Arial" font-size="24px" font-style="normal" font-weight="normal" text-decoration="none" x="400" y="0">UNREGISTERED</text><text fill="#eeeeee" stroke="none" font-family="Arial" font-size="24px" font-style="normal" font-weight="normal" text-decoration="none" x="400" y="30">UNREGISTERED</text><text fill="#eeeeee" stroke="none" font-family="Arial" font-size="24px" font-style="normal" font-weight="normal" text-decoration="none" x="400" y="60">UNREGISTERED</text><text fill="#eeeeee" stroke="none" font-family="Arial" font-size="24px" font-style="normal" font-weight="normal" text-decoration="none" x="400" y="90">UNREGISTERED</text><text fill="#eeeeee" stroke="none" font-family="Arial" font-size="24px" font-style="normal" font-weight="normal" text-decoration="none" x="400" y="120">UNREGISTERED</text><text fill="#eeeeee" stroke="none" font-family="Arial" font-size="24px" font-style="normal" font-weight="normal" text-decoration="none" x="400" y="150">UNREGISTERED</text><text fill="#eeeeee" stroke="none" font-family="Arial" font-size="24px" font-style="normal" font-weight="normal" text-decoration="none" x="400" y="180">UNREGISTERED</text><text fill="#eeeeee" stroke="none" font-family="Arial" font-size="24px" font-style="normal" font-weight="normal" text-decoration="none" x="400" y="210">UNREGISTERED</text><text fill="#eeeeee" stroke="none" font-family="Arial" font-size="24px" font-style="normal" font-weight="normal" text-decoration="none" x="400" y="240">UNREGISTERED</text><text fill="#eeeeee" stroke="none" font-family="Arial" font-size="24px" font-style="normal" font-weight="normal" text-decoration="none" x="400" y="270">UNREGISTERED</text><text fill="#eeeeee" stroke="none" font-family="Arial" font-size="24px" font-style="normal" font-weight="normal" text-decoration="none" x="400" y="300">UNREGISTERED</text><text fill="#eeeeee" stroke="none" font-family="Arial" font-size="24px" font-style="normal" font-weight="normal" text-decoration="none" x="400" y="330">UNREGISTERED</text><text fill="#eeeeee" stroke="none" font-family="Arial" font-size="24px" font-style="normal" font-weight="normal" text-decoration="none" x="400" y="360">UNREGISTERED</text><text fill="#eeeeee" stroke="none" font-family="Arial" font-size="24px" font-style="normal" font-weight="normal" text-decoration="none" x="400" y="390">UNREGISTERED</text><text fill="#eeeeee" stroke="none" font-family="Arial" font-size="24px" font-style="normal" font-weight="normal" text-decoration="none" x="400" y="420">UNREGISTERED</text><text fill="#eeeeee" stroke="none" font-family="Arial" font-size="24px" font-style="normal" font-weight="normal" text-decoration="none" x="400" y="450">UNREGISTERED</text><text fill="#eeeeee" stroke="none" font-family="Arial" font-size="24px" font-style="normal" font-weight="normal" text-decoration="none" x="400" y="480">UNREGISTERED</text><text fill="#eeeeee" stroke="none" font-family="Arial" font-size="24px" font-style="normal" font-weight="normal" text-decoration="none" x="400" y="510">UNREGISTERED</text><text fill="#eeeeee" stroke="none" font-family="Arial" font-size="24px" font-style="normal" font-weight="normal" text-decoration="none" x="400" y="540">UNREGISTERED</text><text fill="#eeeeee" stroke="none" font-family="Arial" font-size="24px" font-style="normal" font-weight="normal" text-decoration="none" x="400" y="570">UNREGISTERED</text><g transform="translate(-246,-310) scale(1,1)"><rect fill="#ffffff" stroke="none" x="296" y="320" width="120" height="32"/></g><g transform="translate(-246,-310) scale(1,1)"><path fill="none" stroke="#000000" d="M 296 320 L 416 320 L 416 352 L 296 352 L 296 320 Z Z" stroke-miterlimit="10"/></g><g transform="translate(-246,-310) scale(1,1)"><g><path fill="none" stroke="none"/><text fill="#000000" stroke="none" font-family="Arial" font-size="13px" font-style="normal" font-weight="normal" text-decoration="none" x="310.109619140625" y="341">User opens app</text></g></g><g transform="translate(-246,-310) scale(1,1)"><rect fill="#ffffff" stroke="none" x="280" y="448" width="136" height="58"/></g><g transform="translate(-246,-310) scale(1,1)"><path fill="none" stroke="#000000" d="M 280 448 L 416 448 L 416 506 L 280 506 L 280 448 Z Z" stroke-miterlimit="10"/></g><g transform="translate(-246,-310) scale(1,1)"><g><path fill="none" stroke="none"/><text fill="#000000" stroke="none" font-family="Arial" font-size="13px" font-style="normal" font-weight="normal" text-decoration="none" x="296.339599609375" y="469">Check is user has</text><text fill="#000000" stroke="none" font-family="Arial" font-size="13px" font-style="normal" font-weight="normal" text-decoration="none" x="305.724609375" y="482">usage tracking</text><text fill="#000000" stroke="none" font-family="Arial" font-size="13px" font-style="normal" font-weight="normal" text-decoration="none" x="324.865966796875" y="495">enabled</text></g></g><g transform="translate(-246,-310) scale(1,1)"><path fill="#ffffff" stroke="none" d="M 256 674.5 L 348.55712890625 584 L 441.1142578125 674.5 L 348.55712890625 765 L 256 674.5"/></g><g transform="translate(-246,-310) scale(1,1)"><path fill="none" stroke="#000000" d="M 256 674.5 L 348.55712890625 584 L 441.1142578125 674.5 L 348.55712890625 765 L 256 674.5 L 256 674.5" stroke-miterlimit="10"/></g><g transform="translate(-246,-310) scale(1,1)"><g><path fill="none" stroke="none"/><text fill="#000000" stroke="none" font-family="Arial" font-size="13px" font-style="normal" font-weight="normal" text-decoration="none" x="322.547607421875" y="647">Has user</text><text fill="#000000" stroke="none" font-family="Arial" font-size="13px" font-style="normal" font-weight="normal" text-decoration="none" x="305.9072265625" y="660">enabled usage</text><text fill="#000000" stroke="none" font-family="Arial" font-size="13px" font-style="normal" font-weight="normal" text-decoration="none" x="322.185791015625" y="673">tracking /</text><text fill="#000000" stroke="none" font-family="Arial" font-size="13px" font-style="normal" font-weight="normal" text-decoration="none" x="318.567626953125" y="686">completed</text><text fill="#000000" stroke="none" font-family="Arial" font-size="13px" font-style="normal" font-weight="normal" text-decoration="none" x="316.028564453125" y="699">onboarding</text><text fill="#000000" stroke="none" font-family="Arial" font-size="13px" font-style="normal" font-weight="normal" text-decoration="none" x="322.1826171875" y="712">process?</text></g></g><g transform="translate(-246,-310) scale(1,1)"><rect fill="#ffffff" stroke="none" x="608" y="648" width="140.05712890625" height="48"/></g><g transform="translate(-246,-310) scale(1,1)"><path fill="none" stroke="#000000" d="M 608 648 L 748.05712890625 648 L 748.05712890625 696 L 608 696 L 608 648 Z Z" stroke-miterlimit="10"/></g><g transform="translate(-246,-310) scale(1,1)"><g><path fill="none" stroke="none"/><text fill="#000000" stroke="none" font-family="Arial" font-size="13px" font-style="normal" font-weight="normal" text-decoration="none" x="627.4345703125" y="669">Show onboarding</text><text fill="#000000" stroke="none" font-family="Arial" font-size="13px" font-style="normal" font-weight="normal" text-decoration="none" x="633.591796875" y="681.5">screens to user</text></g></g><g transform="translate(-246,-310) scale(1,1)"><path fill="#ffffff" stroke="none" d="M 296.5 848 L 391.5 848 Q 408 848 408 864.5 L 408 863.5 Q 408 880 391.5 880 L 296.5 880 Q 280 880 280 863.5 L 280 864.5 Q 280 848 296.5 848 Z"/></g><g transform="translate(-246,-310) scale(1,1)"><path fill="none" stroke="#000000" d="M 296.5 848 L 391.5 848 Q 408 848 408 864.5 L 408 863.5 Q 408 880 391.5 880 L 296.5 880 Q 280 880 280 863.5 L 280 864.5 Q 280 848 296.5 848 Z" stroke-miterlimit="10"/></g><g transform="translate(-246,-310) scale(1,1)"><g><path fill="none" stroke="none"/><text fill="#000000" stroke="none" font-family="Arial" font-size="13px" font-style="normal" font-weight="normal" text-decoration="none" x="290.530517578125" y="869">Show main screen</text></g></g><g transform="translate(-246,-310) scale(1,1)"><path fill="none" stroke="#000000" d="M 355 352 L 355 448" stroke-miterlimit="10"/></g><g transform="translate(-246,-310) scale(1,1)"><path fill="#000000" stroke="none" d="M 350.790482243984 437.83732514237585 L 355 448 L 359.209517756016 437.83732514237585"/></g><g transform="translate(-246,-310) scale(1,1)"><path fill="none" stroke="#000000" d="M 350.790482243984 437.83732514237585 L 355 448 L 359.209517756016 437.83732514237585 L 350.790482243984 437.83732514237585" stroke-miterlimit="10"/></g><g transform="translate(-246,-310) scale(1,1)"><path fill="none" stroke="#000000" d="M 350 506 L 350 584" stroke-miterlimit="10"/></g><g transform="translate(-246,-310) scale(1,1)"><path fill="#000000" stroke="none" d="M 345.790482243984 573.8373251423759 L 350 584 L 354.209517756016 573.8373251423759"/></g><g transform="translate(-246,-310) scale(1,1)"><path fill="none" stroke="#000000" d="M 345.790482243984 573.8373251423759 L 350 584 L 354.209517756016 573.8373251423759 L 345.790482243984 573.8373251423759" stroke-miterlimit="10"/></g><g transform="translate(-246,-310) scale(1,1)"><path fill="none" stroke="#000000" d="M 441 672 L 608 672" stroke-miterlimit="10"/></g><g transform="translate(-246,-310) scale(1,1)"><path fill="#000000" stroke="none" d="M 597.8373251423759 676.209517756016 L 608 672 L 597.8373251423758 667.790482243984"/></g><g transform="translate(-246,-310) scale(1,1)"><path fill="none" stroke="#000000" d="M 597.8373251423759 676.209517756016 L 608 672 L 597.8373251423758 667.790482243984 L 597.8373251423759 676.209517756016" stroke-miterlimit="10"/></g><g transform="translate(-246,-310) scale(1,1)"><g><path fill="none" stroke="none"/><text fill="#000000" stroke="none" font-family="Arial" font-size="13px" font-style="normal" font-weight="normal" text-decoration="none" x="515.5" y="662">No</text></g></g><g transform="translate(-246,-310) scale(1,1)"><path fill="none" stroke="#000000" d="M 344 765 L 344 848" stroke-miterlimit="10"/></g><g transform="translate(-246,-310) scale(1,1)"><path fill="#000000" stroke="none" d="M 339.790482243984 837.8373251423759 L 344 848 L 348.209517756016 837.8373251423759"/></g><g transform="translate(-246,-310) scale(1,1)"><path fill="none" stroke="#000000" d="M 339.790482243984 837.8373251423759 L 344 848 L 348.209517756016 837.8373251423759 L 339.790482243984 837.8373251423759" stroke-miterlimit="10"/></g><g transform="translate(-246,-310) scale(1,1)"><g><path fill="none" stroke="none"/><text fill="#000000" stroke="none" font-family="Arial" font-size="13px" font-style="normal" font-weight="normal" text-decoration="none" x="347.5" y="810">Yes</text></g></g><g transform="translate(-246,-310) scale(1,1)"><path fill="none" stroke="#000000" d="M 648 648 L 648 480 M 648 480 A 8 8 0 0 0 640 472 L 416 472" stroke-miterlimit="10"/></g><g transform="translate(-246,-310) scale(1,1)"><path fill="#000000" stroke="none" d="M 426.16267485762415 467.790482243984 L 416 472 L 426.16267485762415 476.209517756016"/></g><g transform="translate(-246,-310) scale(1,1)"><path fill="none" stroke="#000000" d="M 426.16267485762415 467.790482243984 L 416 472 L 426.16267485762415 476.209517756016 L 426.16267485762415 467.790482243984" stroke-miterlimit="10"/></g></g></svg>