<svg version="1.1" xmlns="http://www.w3.org/2000/svg" xmlns:xlink="http://www.w3.org/1999/xlink" width="437.15625" height="659"><defs/><g><text fill="#eeeeee" stroke="none" font-family="Arial" font-size="24px" font-style="normal" font-weight="normal" text-decoration="none" x="0" y="0">UNREGISTERED</text><text fill="#eeeeee" stroke="none" font-family="Arial" font-size="24px" font-style="normal" font-weight="normal" text-decoration="none" x="0" y="30">UNREGISTERED</text><text fill="#eeeeee" stroke="none" font-family="Arial" font-size="24px" font-style="normal" font-weight="normal" text-decoration="none" x="0" y="60">UNREGISTERED</text><text fill="#eeeeee" stroke="none" font-family="Arial" font-size="24px" font-style="normal" font-weight="normal" text-decoration="none" x="0" y="90">UNREGISTERED</text><text fill="#eeeeee" stroke="none" font-family="Arial" font-size="24px" font-style="normal" font-weight="normal" text-decoration="none" x="0" y="120">UNREGISTERED</text><text fill="#eeeeee" stroke="none" font-family="Arial" font-size="24px" font-style="normal" font-weight="normal" text-decoration="none" x="0" y="150">UNREGISTERED</text><text fill="#eeeeee" stroke="none" font-family="Arial" font-size="24px" font-style="normal" font-weight="normal" text-decoration="none" x="0" y="180">UNREGISTERED</text><text fill="#eeeeee" stroke="none" font-family="Arial" font-size="24px" font-style="normal" font-weight="normal" text-decoration="none" x="0" y="210">UNREGISTERED</text><text fill="#eeeeee" stroke="none" font-family="Arial" font-size="24px" font-style="normal" font-weight="normal" text-decoration="none" x="0" y="240">UNREGISTERED</text><text fill="#eeeeee" stroke="none" font-family="Arial" font-size="24px" font-style="normal" font-weight="normal" text-decoration="none" x="0" y="270">UNREGISTERED</text><text fill="#eeeeee" stroke="none" font-family="Arial" font-size="24px" font-style="normal" font-weight="normal" text-decoration="none" x="0" y="300">UNREGISTERED</text><text fill="#eeeeee" stroke="none" font-family="Arial" font-size="24px" font-style="normal" font-weight="normal" text-decoration="none" x="0" y="330">UNREGISTERED</text><text fill="#eeeeee" stroke="none" font-family="Arial" font-size="24px" font-style="normal" font-weight="normal" text-decoration="none" x="0" y="360">UNREGISTERED</text><text fill="#eeeeee" stroke="none" font-family="Arial" font-size="24px" font-style="normal" font-weight="normal" text-decoration="none" x="0" y="390">UNREGISTERED</text><text fill="#eeeeee" stroke="none" font-family="Arial" font-size="24px" font-style="normal" font-weight="normal" text-decoration="none" x="0" y="420">UNREGISTERED</text><text fill="#eeeeee" stroke="none" font-family="Arial" font-size="24px" font-style="normal" font-weight="normal" text-decoration="none" x="0" y="450">UNREGISTERED</text><text fill="#eeeeee" stroke="none" font-family="Arial" font-size="24px" font-style="normal" font-weight="normal" text-decoration="none" x="0" y="480">UNREGISTERED</text><text fill="#eeeeee" stroke="none" font-family="Arial" font-size="24px" font-style="normal" font-weight="normal" text-decoration="none" x="0" y="510">UNREGISTERED</text><text fill="#eeeeee" stroke="none" font-family="Arial" font-size="24px" font-style="normal" font-weight="normal" text-decoration="none" x="0" y="540">UNREGISTERED</text><text fill="#eeeeee" stroke="none" font-family="Arial" font-size="24px" font-style="normal" font-weight="normal" text-decoration="none" x="0" y="570">UNREGISTERED</text><text fill="#eeeeee" stroke="none" font-family="Arial" font-size="24px" font-style="normal" font-weight="normal" text-decoration="none" x="0" y="600">UNREGISTERED</text><text fill="#eeeeee" stroke="none" font-family="Arial" font-size="24px" font-style="normal" font-weight="normal" text-decoration="none" x="0" y="630">UNREGISTERED</text><text fill="#eeeeee" stroke="none" font-family="Arial" font-size="24px" font-style="normal" font-weight="normal" text-decoration="none" x="200" y="0">UNREGISTERED</text><text fill="#eeeeee" stroke="none" font-family="Arial" font-size="24px" font-style="normal" font-weight="normal" text-decoration="none" x="200" y="30">UNREGISTERED</text><text fill="#eeeeee" stroke="none" font-family="Arial" font-size="24px" font-style="normal" font-weight="normal" text-decoration="none" x="200" y="60">UNREGISTERED</text><text fill="#eeeeee" stroke="none" font-family="Arial" font-size="24px" font-style="normal" font-weight="normal" text-decoration="none" x="200" y="90">UNREGISTERED</text><text fill="#eeeeee" stroke="none" font-family="Arial" font-size="24px" font-style="normal" font-weight="normal" text-decoration="none" x="200" y="120">UNREGISTERED</text><text fill="#eeeeee" stroke="none" font-family="Arial" font-size="24px" font-style="normal" font-weight="normal" text-decoration="none" x="200" y="150">UNREGISTERED</text><text fill="#eeeeee" stroke="none" font-family="Arial" font-size="24px" font-style="normal" font-weight="normal" text-decoration="none" x="200" y="180">UNREGISTERED</text><text fill="#eeeeee" stroke="none" font-family="Arial" font-size="24px" font-style="normal" font-weight="normal" text-decoration="none" x="200" y="210">UNREGISTERED</text><text fill="#eeeeee" stroke="none" font-family="Arial" font-size="24px" font-style="normal" font-weight="normal" text-decoration="none" x="200" y="240">UNREGISTERED</text><text fill="#eeeeee" stroke="none" font-family="Arial" font-size="24px" font-style="normal" font-weight="normal" text-decoration="none" x="200" y="270">UNREGISTERED</text><text fill="#eeeeee" stroke="none" font-family="Arial" font-size="24px" font-style="normal" font-weight="normal" text-decoration="none" x="200" y="300">UNREGISTERED</text><text fill="#eeeeee" stroke="none" font-family="Arial" font-size="24px" font-style="normal" font-weight="normal" text-decoration="none" x="200" y="330">UNREGISTERED</text><text fill="#eeeeee" stroke="none" font-family="Arial" font-size="24px" font-style="normal" font-weight="normal" text-decoration="none" x="200" y="360">UNREGISTERED</text><text fill="#eeeeee" stroke="none" font-family="Arial" font-size="24px" font-style="normal" font-weight="normal" text-decoration="none" x="200" y="390">UNREGISTERED</text><text fill="#eeeeee" stroke="none" font-family="Arial" font-size="24px" font-style="normal" font-weight="normal" text-decoration="none" x="200" y="420">UNREGISTERED</text><text fill="#eeeeee" stroke="none" font-family="Arial" font-size="24px" font-style="normal" font-weight="normal" text-decoration="none" x="200" y="450">UNREGISTERED</text><text fill="#eeeeee" stroke="none" font-family="Arial" font-size="24px" font-style="normal" font-weight="normal" text-decoration="none" x="200" y="480">UNREGISTERED</text><text fill="#eeeeee" stroke="none" font-family="Arial" font-size="24px" font-style="normal" font-weight="normal" text-decoration="none" x="200" y="510">UNREGISTERED</text><text fill="#eeeeee" stroke="none" font-family="Arial" font-size="24px" font-style="normal" font-weight="normal" text-decoration="none" x="200" y="540">UNREGISTERED</text><text fill="#eeeeee" stroke="none" font-family="Arial" font-size="24px" font-style="normal" font-weight="normal" text-decoration="none" x="200" y="570">UNREGISTERED</text><text fill="#eeeeee" stroke="none" font-family="Arial" font-size="24px" font-style="normal" font-weight="normal" text-decoration="none" x="200" y="600">UNREGISTERED</text><text fill="#eeeeee" stroke="none" font-family="Arial" font-size="24px" font-style="normal" font-weight="normal" text-decoration="none" x="200" y="630">UNREGISTERED</text><text fill="#eeeeee" stroke="none" font-family="Arial" font-size="24px" font-style="normal" font-weight="normal" text-decoration="none" x="400" y="0">UNREGISTERED</text><text fill="#eeeeee" stroke="none" font-family="Arial" font-size="24px" font-style="normal" font-weight="normal" text-decoration="none" x="400" y="30">UNREGISTERED</text><text fill="#eeeeee" stroke="none" font-family="Arial" font-size="24px" font-style="normal" font-weight="normal" text-decoration="none" x="400" y="60">UNREGISTERED</text><text fill="#eeeeee" stroke="none" font-family="Arial" font-size="24px" font-style="normal" font-weight="normal" text-decoration="none" x="400" y="90">UNREGISTERED</text><text fill="#eeeeee" stroke="none" font-family="Arial" font-size="24px" font-style="normal" font-weight="normal" text-decoration="none" x="400" y="120">UNREGISTERED</text><text fill="#eeeeee" stroke="none" font-family="Arial" font-size="24px" font-style="normal" font-weight="normal" text-decoration="none" x="400" y="150">UNREGISTERED</text><text fill="#eeeeee" stroke="none" font-family="Arial" font-size="24px" font-style="normal" font-weight="normal" text-decoration="none" x="400" y="180">UNREGISTERED</text><text fill="#eeeeee" stroke="none" font-family="Arial" font-size="24px" font-style="normal" font-weight="normal" text-decoration="none" x="400" y="210">UNREGISTERED</text><text fill="#eeeeee" stroke="none" font-family="Arial" font-size="24px" font-style="normal" font-weight="normal" text-decoration="none" x="400" y="240">UNREGISTERED</text><text fill="#eeeeee" stroke="none" font-family="Arial" font-size="24px" font-style="normal" font-weight="normal" text-decoration="none" x="400" y="270">UNREGISTERED</text><text fill="#eeeeee" stroke="none" font-family="Arial" font-size="24px" font-style="normal" font-weight="normal" text-decoration="none" x="400" y="300">UNREGISTERED</text><text fill="#eeeeee" stroke="none" font-family="Arial" font-size="24px" font-style="normal" font-weight="normal" text-decoration="none" x="400" y="330">UNREGISTERED</text><text fill="#eeeeee" stroke="none" font-family="Arial" font-size="24px" font-style="normal" font-weight="normal" text-decoration="none" x="400" y="360">UNREGISTERED</text><text fill="#eeeeee" stroke="none" font-family="Arial" font-size="24px" font-style="normal" font-weight="normal" text-decoration="none" x="400" y="390">UNREGISTERED</text><text fill="#eeeeee" stroke="none" font-family="Arial" font-size="24px" font-style="normal" font-weight="normal" text-decoration="none" x="400" y="420">UNREGISTERED</text><text fill="#eeeeee" stroke="none" font-family="Arial" font-size="24px" font-style="normal" font-weight="normal" text-decoration="none" x="400" y="450">UNREGISTERED</text><text fill="#eeeeee" stroke="none" font-family="Arial" font-size="24px" font-style="normal" font-weight="normal" text-decoration="none" x="400" y="480">UNREGISTERED</text><text fill="#eeeeee" stroke="none" font-family="Arial" font-size="24px" font-style="normal" font-weight="normal" text-decoration="none" x="400" y="510">UNREGISTERED</text><text fill="#eeeeee" stroke="none" font-family="Arial" font-size="24px" font-style="normal" font-weight="normal" text-decoration="none" x="400" y="540">UNREGISTERED</text><text fill="#eeeeee" stroke="none" font-family="Arial" font-size="24px" font-style="normal" font-weight="normal" text-decoration="none" x="400" y="570">UNREGISTERED</text><text fill="#eeeeee" stroke="none" font-family="Arial" font-size="24px" font-style="normal" font-weight="normal" text-decoration="none" x="400" y="600">UNREGISTERED</text><text fill="#eeeeee" stroke="none" font-family="Arial" font-size="24px" font-style="normal" font-weight="normal" text-decoration="none" x="400" y="630">UNREGISTERED</text><g transform="translate(-598,-262) scale(1,1)"><rect fill="#ffffff" stroke="none" x="632" y="272" width="104" height="58"/></g><g transform="translate(-598,-262) scale(1,1)"><path fill="none" stroke="#000000" d="M 632 272 L 736 272 L 736 330 L 632 330 L 632 272 Z Z" stroke-miterlimit="10"/></g><g transform="translate(-598,-262) scale(1,1)"><g><path fill="none" stroke="none"/><text fill="#000000" stroke="none" font-family="Arial" font-size="13px" font-style="normal" font-weight="normal" text-decoration="none" x="654.740478515625" y="293">User is on</text><text fill="#000000" stroke="none" font-family="Arial" font-size="13px" font-style="normal" font-weight="normal" text-decoration="none" x="661.59912109375" y="306">settings</text><text fill="#000000" stroke="none" font-family="Arial" font-size="13px" font-style="normal" font-weight="normal" text-decoration="none" x="664.490478515625" y="317.5">screen</text></g></g><g transform="translate(-598,-262) scale(1,1)"><rect fill="#ffffff" stroke="none" x="632" y="384" width="112" height="71"/></g><g transform="translate(-598,-262) scale(1,1)"><path fill="none" stroke="#000000" d="M 632 384 L 744 384 L 744 455 L 632 455 L 632 384 Z Z" stroke-miterlimit="10"/></g><g transform="translate(-598,-262) scale(1,1)"><g><path fill="none" stroke="none"/><text fill="#000000" stroke="none" font-family="Arial" font-size="13px" font-style="normal" font-weight="normal" text-decoration="none" x="656.582275390625" y="405">User clicks</text><text fill="#000000" stroke="none" font-family="Arial" font-size="13px" font-style="normal" font-weight="normal" text-decoration="none" x="650.996337890625" y="418">"Send usage</text><text fill="#000000" stroke="none" font-family="Arial" font-size="13px" font-style="normal" font-weight="normal" text-decoration="none" x="660.771728515625" y="431">statistics"</text><text fill="#000000" stroke="none" font-family="Arial" font-size="13px" font-style="normal" font-weight="normal" text-decoration="none" x="669.92822265625" y="444">button</text></g></g><g transform="translate(-598,-262) scale(1,1)"><rect fill="#ffffff" stroke="none" x="616" y="504" width="145.18994140625" height="58"/></g><g transform="translate(-598,-262) scale(1,1)"><path fill="none" stroke="#000000" d="M 616 504 L 761.18994140625 504 L 761.18994140625 562 L 616 562 L 616 504 Z Z" stroke-miterlimit="10"/></g><g transform="translate(-598,-262) scale(1,1)"><g><path fill="none" stroke="none"/><text fill="#000000" stroke="none" font-family="Arial" font-size="13px" font-style="normal" font-weight="normal" text-decoration="none" x="630.06640625" y="525">Process usage stats</text><text fill="#000000" stroke="none" font-family="Arial" font-size="13px" font-style="normal" font-weight="normal" text-decoration="none" x="635.474609375" y="538">into a readable file</text><text fill="#000000" stroke="none" font-family="Arial" font-size="13px" font-style="normal" font-weight="normal" text-decoration="none" x="652.483154296875" y="551">format (.csv)</text></g></g><g transform="translate(-598,-262) scale(1,1)"><path fill="#ffffff" stroke="none" d="M 608 691.5 L 693.65625 608 L 779.3125 691.5 L 693.65625 775 L 608 691.5"/></g><g transform="translate(-598,-262) scale(1,1)"><path fill="none" stroke="#000000" d="M 608 691.5 L 693.65625 608 L 779.3125 691.5 L 693.65625 775 L 608 691.5 L 608 691.5" stroke-miterlimit="10"/></g><g transform="translate(-598,-262) scale(1,1)"><g><path fill="none" stroke="none"/><text fill="#000000" stroke="none" font-family="Arial" font-size="13px" font-style="normal" font-weight="normal" text-decoration="none" x="662.225830078125" y="683.5">Is an email</text><text fill="#000000" stroke="none" font-family="Arial" font-size="13px" font-style="normal" font-weight="normal" text-decoration="none" x="662.578125" y="696.5">application</text><text fill="#000000" stroke="none" font-family="Arial" font-size="13px" font-style="normal" font-weight="normal" text-decoration="none" x="666.193115234375" y="709.5">installed?</text></g></g><g transform="translate(-598,-262) scale(1,1)"><rect fill="#ffffff" stroke="none" x="904" y="672" width="121.15625" height="71"/></g><g transform="translate(-598,-262) scale(1,1)"><path fill="none" stroke="#000000" d="M 904 672 L 1025.15625 672 L 1025.15625 743 L 904 743 L 904 672 Z Z" stroke-miterlimit="10"/></g><g transform="translate(-598,-262) scale(1,1)"><g><path fill="none" stroke="none"/><text fill="#000000" stroke="none" font-family="Arial" font-size="13px" font-style="normal" font-weight="normal" text-decoration="none" x="932.0654296875" y="693">Ask user to</text><text fill="#000000" stroke="none" font-family="Arial" font-size="13px" font-style="normal" font-weight="normal" text-decoration="none" x="921.58544921875" y="706">install an email</text><text fill="#000000" stroke="none" font-family="Arial" font-size="13px" font-style="normal" font-weight="normal" text-decoration="none" x="926.273193359375" y="719">application to</text><text fill="#000000" stroke="none" font-family="Arial" font-size="13px" font-style="normal" font-weight="normal" text-decoration="none" x="925.1845703125" y="732">send the data</text></g></g><g transform="translate(-598,-262) scale(1,1)"><path fill="none" stroke="#000000" d="M 685 330 L 685 384" stroke-miterlimit="10"/></g><g transform="translate(-598,-262) scale(1,1)"><path fill="#000000" stroke="none" d="M 680.790482243984 373.83732514237585 L 685 384 L 689.209517756016 373.83732514237585"/></g><g transform="translate(-598,-262) scale(1,1)"><path fill="none" stroke="#000000" d="M 680.790482243984 373.83732514237585 L 685 384 L 689.209517756016 373.83732514237585 L 680.790482243984 373.83732514237585" stroke-miterlimit="10"/></g><g transform="translate(-598,-262) scale(1,1)"><path fill="none" stroke="#000000" d="M 688 455 L 688 504" stroke-miterlimit="10"/></g><g transform="translate(-598,-262) scale(1,1)"><path fill="#000000" stroke="none" d="M 683.790482243984 493.83732514237585 L 688 504 L 692.209517756016 493.83732514237585"/></g><g transform="translate(-598,-262) scale(1,1)"><path fill="none" stroke="#000000" d="M 683.790482243984 493.83732514237585 L 688 504 L 692.209517756016 493.83732514237585 L 683.790482243984 493.83732514237585" stroke-miterlimit="10"/></g><g transform="translate(-598,-262) scale(1,1)"><path fill="none" stroke="#000000" d="M 689 562 L 689 608" stroke-miterlimit="10"/></g><g transform="translate(-598,-262) scale(1,1)"><path fill="#000000" stroke="none" d="M 684.790482243984 597.8373251423759 L 689 608 L 693.209517756016 597.8373251423759"/></g><g transform="translate(-598,-262) scale(1,1)"><path fill="none" stroke="#000000" d="M 684.790482243984 597.8373251423759 L 689 608 L 693.209517756016 597.8373251423759 L 684.790482243984 597.8373251423759" stroke-miterlimit="10"/></g><g transform="translate(-598,-262) scale(1,1)"><path fill="none" stroke="#000000" d="M 779 707 L 904 707" stroke-miterlimit="10"/></g><g transform="translate(-598,-262) scale(1,1)"><path fill="#000000" stroke="none" d="M 893.8373251423759 711.209517756016 L 904 707 L 893.8373251423758 702.790482243984"/></g><g transform="translate(-598,-262) scale(1,1)"><path fill="none" stroke="#000000" d="M 893.8373251423759 711.209517756016 L 904 707 L 893.8373251423758 702.790482243984 L 893.8373251423759 711.209517756016" stroke-miterlimit="10"/></g><g transform="translate(-598,-262) scale(1,1)"><g><path fill="none" stroke="none"/><text fill="#000000" stroke="none" font-family="Arial" font-size="13px" font-style="normal" font-weight="normal" text-decoration="none" x="832.5" y="697">No</text></g></g><g transform="translate(-598,-262) scale(1,1)"><path fill="none" stroke="#000000" d="M 960 672 L 960 536 M 960 536 A 8 8 0 0 0 952 528 L 761 528" stroke-miterlimit="10"/></g><g transform="translate(-598,-262) scale(1,1)"><path fill="#000000" stroke="none" d="M 771.1626748576241 523.790482243984 L 761 528 L 771.1626748576241 532.209517756016"/></g><g transform="translate(-598,-262) scale(1,1)"><path fill="none" stroke="#000000" d="M 771.1626748576241 523.790482243984 L 761 528 L 771.1626748576241 532.209517756016 L 771.1626748576241 523.790482243984" stroke-miterlimit="10"/></g><g transform="translate(-598,-262) scale(1,1)"><path fill="#ffffff" stroke="none" d="M 652 840 L 708 840 Q 744 840 744 876 L 744 875 Q 744 911 708 911 L 652 911 Q 616 911 616 875 L 616 876 Q 616 840 652 840 Z"/></g><g transform="translate(-598,-262) scale(1,1)"><path fill="none" stroke="#000000" d="M 652 840 L 708 840 Q 744 840 744 876 L 744 875 Q 744 911 708 911 L 652 911 Q 616 911 616 875 L 616 876 Q 616 840 652 840 Z" stroke-miterlimit="10"/></g><g transform="translate(-598,-262) scale(1,1)"><g><path fill="none" stroke="none"/><text fill="#000000" stroke="none" font-family="Arial" font-size="13px" font-style="normal" font-weight="normal" text-decoration="none" x="637.0009765625" y="861">Populate email</text><text fill="#000000" stroke="none" font-family="Arial" font-size="13px" font-style="normal" font-weight="normal" text-decoration="none" x="639.175048828125" y="874">with pre-typed</text><text fill="#000000" stroke="none" font-family="Arial" font-size="13px" font-style="normal" font-weight="normal" text-decoration="none" x="635.195068359375" y="887">information and</text><text fill="#000000" stroke="none" font-family="Arial" font-size="13px" font-style="normal" font-weight="normal" text-decoration="none" x="633.38916015625" y="900">pre-attached file</text></g></g><g transform="translate(-598,-262) scale(1,1)"><path fill="none" stroke="#000000" d="M 687 775 L 687 840" stroke-miterlimit="10"/></g><g transform="translate(-598,-262) scale(1,1)"><path fill="#000000" stroke="none" d="M 682.790482243984 829.8373251423759 L 687 840 L 691.209517756016 829.8373251423759"/></g><g transform="translate(-598,-262) scale(1,1)"><path fill="none" stroke="#000000" d="M 682.790482243984 829.8373251423759 L 687 840 L 691.209517756016 829.8373251423759 L 682.790482243984 829.8373251423759" stroke-miterlimit="10"/></g><g transform="translate(-598,-262) scale(1,1)"><g><path fill="none" stroke="none"/><text fill="#000000" stroke="none" font-family="Arial" font-size="13px" font-style="normal" font-weight="normal" text-decoration="none" x="690.5" y="811">Yes</text></g></g></g></svg>